<?xml version="1.0" ?>
<!DOCTYPE svg  PUBLIC '-//W3C//DTD SVG 1.1//EN'  'http://www.w3.org/Graphics/SVG/1.1/DTD/svg11.dtd'>
<!-- Uploaded to: SVG Repo, www.svgrepo.com, Generator: SVG Repo Mixer Tools -->
<svg width="800px" height="800px" viewBox="0 0 512 512" version="1.1" xml:space="preserve" xmlns="http://www.w3.org/2000/svg" xmlns:xlink="http://www.w3.org/1999/xlink">
<g id="_x36_28_x2C__Beauty_x2C__bouquet_x2C__flowers_x2C__wedding">
<g>
<path d="M372.3,120.27c21.17-5.29,38.33-5.11,38.33-5.11l-31.51,55.28c-2.3-0.53-4.69-0.82-7.15-0.82    c-9.58,0-18.149,4.28-23.91,11.04c-2.25-15.14-15.3-26.75-31.06-26.75c-6.42,0-12.38,1.93-17.34,5.23    c-0.58-7.81,1.07-15.86,5.24-23.18l34.88-61.19c0,0,21.3,17.35,26.3,46.84c0.02,0.11,0.04,0.22,0.06,0.33    C368.22,121.33,370.28,120.78,372.3,120.27z" style="fill:#EF3E5C;"/>
<g>
<g>
<g>
<path d="M314.566,141.445l33.28-58.384c-4.529-5.409-8.066-8.291-8.066-8.291l-34.88,61.19       c-4.17,7.32-5.82,15.37-5.24,23.18c3.044-2.025,6.467-3.528,10.14-4.392C310.578,150.194,312.145,145.696,314.566,141.445z" style="fill:#E42A53;"/>
</g>
<g>
<path d="M337.064,161.166c5.797,4.822,9.835,11.686,10.995,19.494c1.731-2.032,3.722-3.834,5.912-5.37       C350.252,168.755,344.258,163.69,337.064,161.166z" style="fill:#E42A53;"/>
</g>
</g>
</g>
<path d="M266.6,84.57c17.301-17.92,35.29-27.92,35.29-27.92v70.43c0,11.14-4.47,21.24-11.71,28.6    c-5.14-10.36-15.81-17.48-28.16-17.48c-12.81,0-23.83,7.68-28.72,18.68c-7.97-7.44-12.96-18.03-12.96-29.8V56.65    C220.34,56.65,247.65,61.21,266.6,84.57z" style="fill:#EF3E5C;"/>
<g>
<g>
<g>
<path d="M272.504,138.2c-1.789,0-3.537,0.165-5.244,0.452c10.077,1.693,18.524,8.167,22.92,17.028       c2.125-2.16,4.003-4.561,5.607-7.15C290.041,142.186,281.743,138.2,272.504,138.2z" style="fill:#E42A53;"/>
</g>
<g>
<path d="M230.825,127.08v-67.45c-6.263-2.269-10.485-2.979-10.485-2.979v70.43       c0,11.77,4.99,22.36,12.96,29.8c1.149-2.586,2.649-4.979,4.419-7.141C233.373,143.26,230.825,135.473,230.825,127.08z" style="fill:#E42A53;"/>
</g>
</g>
</g>
<path d="M156.14,121.64c5-29.51,26.32-46.87,26.32-46.87l34.87,61.19c3.98,6.98,5.66,14.63,5.31,22.1    c-4.6-2.63-9.91-4.15-15.59-4.15c-15.76,0-28.81,11.61-31.06,26.75c-5.77-6.76-14.33-11.04-23.91-11.04    c-3.03,0-5.95,0.43-8.73,1.23l-31.74-55.69c0,0,17.03-0.18,38.09,5.05c2.1,0.52,4.23,1.1,6.39,1.73    C156.11,121.84,156.12,121.74,156.14,121.64z" style="fill:#EF3E5C;"/>
<g>
<g>
<g>
<path d="M124.503,123.826c0,0,17.03-0.18,38.09,5.05c2.1,0.52,4.23,1.1,6.39,1.73       c0.02-0.1,0.03-0.2,0.05-0.3c3.432-20.258,14.554-34.788,21.192-41.909L182.46,74.77c0,0-21.32,17.36-26.32,46.87       c-0.02,0.1-0.03,0.2-0.05,0.3c-2.16-0.63-4.29-1.21-6.39-1.73c-21.06-5.23-38.09-5.05-38.09-5.05l31.74,55.69       c2.333-0.671,4.77-1.064,7.282-1.179L124.503,123.826z" style="fill:#E42A53;"/>
</g>
<g>
<path d="M175.479,180.091c0.17,0.19,0.346,0.375,0.512,0.568c0.018-0.119,0.042-0.235,0.061-0.353       C175.86,180.234,175.671,180.16,175.479,180.091z" style="fill:#E42A53;"/>
</g>
</g>
</g>
<path d="M114.87,254.4c7.04,7.049,6.1,22.12,5.13,37.19c-15.05,0.949-30.12,1.891-37.17-5.15    c-3.89-3.889-3.46-10.639,0.96-15.049c4-4.012,7.76-4.25,13.29-2.721c-1.53-5.529-1.27-9.311,2.73-13.31    C104.23,250.94,110.98,250.51,114.87,254.4z" style="fill:#EF3E5C;"/>
<g>
<g>
<g>
<path d="M88.023,275.707c-0.727-2.625-1.042-4.854-0.752-6.9c-1.173,0.578-2.317,1.416-3.48,2.584       c-1.068,1.064-1.898,2.27-2.495,3.535C83.292,274.68,85.468,275,88.023,275.707z" style="fill:#E42A53;"/>
</g>
<g>
<path d="M114.87,254.4c-3.89-3.89-10.64-3.46-15.06,0.96c-1.208,1.208-2.069,2.396-2.648,3.617       c3.17-0.59,6.393,0.203,8.651,2.461c6.016,6.025,6.202,17.91,5.523,30.643c2.851-0.125,5.757-0.307,8.664-0.49       C120.97,276.52,121.91,261.449,114.87,254.4z" style="fill:#E42A53;"/>
</g>
</g>
</g>
<path d="M428.21,306.1c4.42,4.41,4.85,11.16,0.96,15.051c-7.05,7.049-22.11,6.109-37.189,5.129    c-0.95-15.049-1.891-30.119,5.149-37.17c3.89-3.879,10.64-3.449,15.061,0.961c4,4,4.239,7.77,2.71,13.289    C420.43,301.84,424.21,302.1,428.21,306.1z" style="fill:#EF3E5C;"/>
<g>
<g>
<g>
<path d="M423.233,309.15c2.576-0.709,4.77-1.023,6.785-0.76c-0.503-0.809-1.099-1.582-1.809-2.291       c-1.374-1.373-2.724-2.297-4.126-2.869C424.168,305.01,423.847,306.938,423.233,309.15z" style="fill:#E42A53;"/>
</g>
<g>
<path d="M405.463,294.9c2.266-2.26,5.501-3.047,8.682-2.449c-0.514-0.795-1.156-1.584-1.954-2.381       c-4.421-4.41-11.171-4.84-15.061-0.961c-7.04,7.051-6.1,22.121-5.149,37.17c2.687,0.176,5.371,0.346,8.011,0.475       C399.254,313.574,399.254,301.117,405.463,294.9z" style="fill:#E42A53;"/>
</g>
</g>
</g>
<polygon points="222.76,373.801 301.29,373.801 301.89,373.801 301.89,400.98 301.89,455.35 220.34,455.35     220.34,428.16 220.34,373.801   " style="fill:#EDD696;"/>
<polygon points="229.007,436.744 229.007,382.385 231.427,382.385 301.89,382.385 301.89,373.801     301.29,373.801 222.76,373.801 220.34,373.801 220.34,428.16 220.34,455.35 229.007,455.35   " style="fill:#D6BC7C;"/>
<path d="M175.99,180.66c2.25-15.14,15.3-26.75,31.06-26.75c5.68,0,10.99,1.52,15.59,4.15    c3.15,1.81,5.97,4.14,8.32,6.9c0.42-2.84,1.22-5.54,2.34-8.08c4.89-11,15.91-18.68,28.72-18.68c12.351,0,23.021,7.12,28.16,17.48    c1.42,2.87,2.42,5.99,2.91,9.28c1.9-2.24,4.12-4.19,6.57-5.82c4.96-3.3,10.92-5.23,17.34-5.23c15.76,0,28.81,11.61,31.06,26.75    c5.761-6.76,14.33-11.04,23.91-11.04c2.46,0,4.851,0.29,7.15,0.82c13.899,3.24,24.26,15.7,24.26,30.59    c0,2.71-102.09,172.771-102.09,172.771h-78.53c0,0-102.09-170.061-102.09-172.771c0-14.32,9.58-26.39,22.68-30.18    c2.78-0.8,5.7-1.23,8.73-1.23C161.66,169.62,170.22,173.9,175.99,180.66z" style="fill:#FFD15C;"/>
<g>
<path d="M133.79,206.031c0-14.32,9.58-26.39,22.68-30.18c2.78-0.8,5.7-1.23,8.73-1.23     c1.478,0,2.928,0.114,4.351,0.311c-4.996-3.352-10.999-5.312-17.471-5.312c-3.03,0-5.95,0.43-8.73,1.23     c-13.1,3.79-22.68,15.86-22.68,30.18c0,2.71,102.09,172.771,102.09,172.771h10.12C216.02,345.689,133.79,208.463,133.79,206.031z     " style="fill:#EAB84B;"/>
</g>
<path d="M279.71,433.16h-54.37c-2.761,0-5-2.238-5-5s2.239-5,5-5h54.37c2.762,0,5,2.238,5,5    S282.472,433.16,279.71,433.16z" style="fill:#D6BC7C;"/>
<path d="M152.551,251.941c-2.334,0-4.422-1.644-4.897-4.021c-0.542-2.708,1.214-5.342,3.922-5.883    c0.916-0.183,92.699-18.098,192.165-0.017c2.717,0.494,4.519,3.097,4.024,5.813c-0.493,2.717-3.093,4.516-5.813,4.025    c-97.612-17.746-187.518-0.196-188.415-0.017C153.206,251.909,152.876,251.941,152.551,251.941z" style="fill:#EAB84B;"/>
<path d="M338.145,306.311c-0.325,0-0.655-0.031-0.986-0.098c-0.604-0.119-45.616-8.771-116.198,0.059    c-2.739,0.344-5.239-1.6-5.582-4.34s1.601-5.24,4.341-5.582c72.463-9.068,117.519-0.32,119.402,0.059    c2.708,0.541,4.463,3.176,3.921,5.883C342.566,304.668,340.479,306.311,338.145,306.311z" style="fill:#EAB84B;"/>
<path d="M410.63,405.98H347.2c-2.762,0-5-2.238-5-5s2.238-5,5-5h63.43c2.762,0,5,2.238,5,5    S413.392,405.98,410.63,405.98z" style="fill:#EF3E5C;"/>
<path d="M383.44,368.801h-58.966H301.89h-81.55h-40.775H138.79c-2.761,0-5,2.238-5,5s2.239,5,5,5h40.775    h40.775h81.55h22.585h58.966c2.762,0,5-2.238,5-5S386.202,368.801,383.44,368.801z" style="fill:#EF3E5C;"/>
</g>
</g>
<g id="Layer_1"/>
</svg>