<?xml version="1.0" encoding="utf-8"?>
<!-- Uploaded to: SVG Repo, www.svgrepo.com, Generator: SVG Repo Mixer Tools -->
<svg width="800px" height="800px" viewBox="0 0 1024 1024" class="icon"  version="1.1" xmlns="http://www.w3.org/2000/svg"><path d="M864.2 390v91.7c0 14.5-11.7 26.2-26.2 26.2H612.1V363.8H838c14.4 0 26.2 11.8 26.2 26.2zM815.3 518.4v311.7c0 14.5-11.8 26.2-26.2 26.2H583.2V518.4h232.1z" fill="#BCE1DB" /><path d="M682.5 214.8c38.1 0 69.3 31 69.3 69.3 0 38.1-31.1 69.3-69.3 69.3H540l46.8-70.9c34-46.8 55.9-67.7 95.7-67.7zM601.6 363.8v144.1H455.7V363.8H529.1l0.1 0.1 0.1-0.1H540zM580.7 168.4c19.8 34.3 16.7 69-10.3 115.8l-41.3 61-70.1-104c-9.1-15.7-11.3-35.4-6.1-54.3 5.2-18.7 17.3-34.7 33.1-43.8 10.7-6.2 22.5-9.3 34.6-9.3 6 0 12 0.8 18 2.4 17.9 4.8 32.9 16.2 42.1 32.2zM483.7 518.4h89.1v337.9h-89.1zM473.4 282.2l47 71.1H378c-38.2 0-69.3-31.1-69.3-69.3 0-38.2 31-69.3 69.3-69.3 39.8 0.1 61.6 21 95.4 67.5z" fill="#F2C2B9" /><path d="M473.2 518.4v337.9H271.3c-14.5 0-26.2-11.7-26.2-26.2V518.4h228.1zM445.3 363.8v144.1H222.4c-14.5 0-26.2-11.7-26.2-26.2V390c0-14.5 11.7-26.2 26.2-26.2H445.3z" fill="#BCE1DB" /><path d="M838 363.8H612.1v144.1H838c14.5 0 26.2-11.7 26.2-26.2V390c0-14.4-11.8-26.2-26.2-26.2z m-48.9 492.5c14.4 0 26.2-11.7 26.2-26.2V518.4H583.2v337.9h205.9zM445.3 507.9V363.8H222.4c-14.5 0-26.2 11.7-26.2 26.2v91.7c0 14.5 11.7 26.2 26.2 26.2h222.9zM378 353.4h142.5l-47-71.1c-33.8-46.5-55.6-67.4-95.5-67.4-38.2 0-69.3 31-69.3 69.3 0 38 31 69.2 69.3 69.2z m95.2 502.9V518.4H245.1v311.7c0 14.5 11.7 26.2 26.2 26.2h201.9z m10.5 0h89.1V518.4h-89.1v337.9z m117.9-492.5h-72.3l-0.1 0.1-0.1-0.1H455.7v144.1h145.9V363.8z m-14.8-81.4l-46.8 71h142.5c38.1 0 69.3-31.1 69.3-69.3 0-38.2-31.1-69.3-69.3-69.3-39.8 0-61.7 20.9-95.7 67.6z m-6.1-114c-9.2-16-24.2-27.5-42-32.3-6-1.6-12-2.4-18-2.4-12 0-23.9 3.1-34.6 9.3-15.8 9.1-27.9 25.1-33.1 43.8-5.2 18.9-3 38.6 6.1 54.3l70.1 104 41.3-61c26.9-46.6 30-81.4 10.2-115.7zM541.4 126c20.5 5.6 37.7 18.8 48.4 37.2 15.8 27.6 18.2 55.8 7 88.9 26.8-32.8 49.2-47.7 85.6-47.7 43.9 0 79.7 35.7 79.7 79.7 0 29.7-16.3 55.5-40.4 69.3H838c20.2 0 36.7 16.5 36.7 36.7v91.7c0 20.2-16.5 36.7-36.7 36.7h-12.2v311.7c0 20.2-16.5 36.7-36.7 36.7H271.3c-20.2 0-36.7-16.5-36.7-36.7V518.4h-12.3c-20.2 0-36.7-16.5-36.7-36.7V390c0-20.2 16.5-36.7 36.7-36.7h116.2c-24.1-13.7-40.3-39.6-40.3-69.3 0-44 35.7-79.7 79.7-79.7 26.8 0 46.1 8.2 65.2 25.7-4.4-14.7-4.5-30.6-0.3-45.9 6-21.4 19.8-39.6 38-50.2 18.5-10.5 40-13.4 60.6-7.9z" fill="#D66474" /></svg>