<!DOCTYPE svg PUBLIC "-//W3C//DTD SVG 1.1//EN" "http://www.w3.org/Graphics/SVG/1.1/DTD/svg11.dtd">
<!-- Uploaded to: SVG Repo, www.svgrepo.com, Transformed by: SVG Repo Mixer Tools -->
<svg version="1.1" id="Layer_1" xmlns="http://www.w3.org/2000/svg" xmlns:xlink="http://www.w3.org/1999/xlink" viewBox="0 0 511.999 511.999" xml:space="preserve" width="800px" height="800px" fill="#000000">
<g id="SVGRepo_bgCarrier" stroke-width="0"/>
<g id="SVGRepo_tracerCarrier" stroke-linecap="round" stroke-linejoin="round"/>
<g id="SVGRepo_iconCarrier"> <g> <path style="fill:#FFAFCC;" d="M354.529,265.343c-11.045-11.285-23.968-20.725-38.275-27.795l-0.015,2.862H191.837l0.01-2.862 c-14.308,7.07-27.231,16.509-38.276,27.795c-21.662,22.135-36.076,51.389-39.387,83.935c22.678,0.263,22.946,12.337,46.124,12.337 c23.434,0,23.434-12.35,46.867-12.35c23.435,0,23.435,12.35,46.869,12.35c23.433,0,23.433-12.35,46.867-12.35 c23.437,0,23.437,12.35,46.874,12.35c23.181,0,23.449-12.074,46.131-12.337C390.605,316.732,376.191,287.478,354.529,265.343z"/> <path style="fill:#FFAFCC;" d="M300.911,428.039c-23.434,0-23.434,12.35-46.867,12.35c-23.435,0-23.435-12.35-46.869-12.35 c-23.434,0-23.434,12.35-46.867,12.35c-23.432,0-23.432-12.35-46.866-12.35v76.243h281.218v-76.243 c-23.437,0-23.437,12.35-46.874,12.35C324.348,440.388,324.348,428.039,300.911,428.039z"/> <path style="fill:#FFAFCC;" d="M344.702,75.318c0-23.192-20.293-41.145-45.325-41.145c-25.033,0-45.325,18.8-45.325,41.992h-0.003 c0-23.192-20.293-41.992-45.325-41.992s-45.325,17.953-45.325,41.145c0,44.124,28.428,94.814,28.428,131.441h124.447 C316.274,169.607,344.702,119.216,344.702,75.318z"/> </g> <g> <path style="fill:#FFAFCC;" d="M393.917,349.278c-22.682,0.263-22.95,12.337-46.131,12.337c-23.437,0-23.437-12.35-46.874-12.35 c-23.434,0-23.434,12.35-46.867,12.35c-23.435,0-23.435-12.35-46.869-12.35c-23.434,0-23.434,12.35-46.867,12.35 c-23.178,0-23.445-12.074-46.124-12.337c-0.482,4.734-0.742,9.534-0.742,14.396v64.365c23.434,0,23.434,12.35,46.866,12.35 c23.434,0,23.434-12.35,46.867-12.35c23.435,0,23.435,12.35,46.869,12.35c23.433,0,23.433-12.35,46.867-12.35 c23.437,0,23.437,12.35,46.874,12.35c23.437,0,23.437-12.35,46.874-12.35v-64.365C394.659,358.812,394.399,354.012,393.917,349.278 z"/> <path style="fill:#FFAFCC;" d="M191.837,240.41l0.01-2.862c-14.308,7.07-27.231,16.509-38.276,27.795 c-21.662,22.135-36.076,51.389-39.387,83.935c9.244,0.107,14.764,2.177,19.63,4.591c0.353-1.569,0.926-3.107,1.697-4.578 c-0.149-0.003-0.291-0.011-0.444-0.013c2.817-32.546,23.741-61.8,40.632-83.935c6.912-9.056,16.273-19.629,25.033-24.933 L191.837,240.41L191.837,240.41z"/> <path style="fill:#FFAFCC;" d="M332.401,265.343c16.891,22.135,37.816,51.389,40.632,83.935c-0.078,0.001-0.151,0.005-0.229,0.007 c0.602,1.564,1.072,3.057,1.446,4.601c4.875-2.422,10.4-4.501,19.668-4.608c-3.312-32.546-17.726-61.8-39.387-83.935 c-11.045-11.285-23.968-20.725-38.275-27.795l-0.015,2.862h-9.691C318.217,247.131,324.894,255.507,332.401,265.343z"/> <path style="fill:#FFAFCC;" d="M113.442,428.039v76.243h20.994v-71.336C129.289,430.335,123.544,428.039,113.442,428.039z"/> <path style="fill:#FFAFCC;" d="M373.665,432.945v71.338h20.994V428.04C384.557,428.039,378.811,430.334,373.665,432.945z"/> <polygon style="fill:#FFAFCC;" points="254.051,440.388 254.045,440.388 254.045,440.388 "/> </g> <rect x="191.831" y="206.764" style="fill:#BDE0FE;" width="124.444" height="33.651"/> <g> <path style="fill:#FFAFCC;" d="M215.718,34.672c-2.28-0.327-4.615-0.499-6.994-0.499c-25.033,0-45.325,17.953-45.325,41.145 c0,44.124,28.428,94.814,28.428,131.441h16.901c0-36.627-25.358-87.317-25.358-131.441 C183.368,54.375,199.217,37.708,215.718,34.672z"/> <path style="fill:#FFAFCC;" d="M299.377,34.174c-2.378,0-4.714,0.172-6.994,0.499c16.501,3.035,32.349,19.703,32.349,40.646 c0,43.897-25.358,94.29-25.358,131.441h16.901c0-37.152,28.428-87.544,28.428-131.441 C344.702,52.127,324.409,34.174,299.377,34.174z"/> <path style="fill:#FFAFCC;" d="M292.383,34.672c-1.771-0.326-3.549-0.499-5.318-0.499c-18.233,0-33.015,18.8-33.015,41.992l0,0 C254.052,55.177,270.671,37.788,292.383,34.672z"/> <path style="fill:#FFAFCC;" d="M254.049,76.165L254.049,76.165c0-23.192-14.781-41.992-33.014-41.992 c-1.767,0-3.545,0.173-5.318,0.499C237.429,37.788,254.049,55.177,254.049,76.165z"/> </g> <g> <polygon style="fill:#D80029;" points="60.54,131.134 41.881,112.476 52.796,101.561 60.54,109.303 68.204,101.64 79.119,112.556 "/> <polygon style="fill:#D80029;" points="451.54,276.26 432.88,257.601 443.796,246.685 451.54,254.428 459.202,246.765 470.118,257.68 "/> </g> <path d="M379.394,284.339c-13.757-21.688-32.845-39.404-55.402-51.483v-18.378v-7.719c0-16.621,6.301-36.743,12.972-58.046 c7.598-24.263,15.456-49.351,15.456-73.395c0-14.487-6.517-27.311-17.051-36.184V0h-15.437v30.136 c-6.293-2.373-13.228-3.681-20.556-3.681c-19.176,0-36.007,9.584-45.325,23.912c-9.319-14.328-26.15-23.912-45.326-23.912 c-7.327,0-14.262,1.308-20.555,3.681V0h-15.437v39.134c-10.535,8.873-17.051,21.697-17.051,36.184 c0,24.267,7.909,49.553,15.556,74.006c6.619,21.162,12.87,41.151,12.87,57.434v7.719v18.378 c-22.557,12.079-41.643,29.795-55.401,51.482c-15.037,23.704-22.984,51.138-22.984,79.335v148.327h296.655V363.673 C402.378,335.476,394.43,308.042,379.394,284.339z M171.118,75.319c0-18.744,16.519-33.426,37.607-33.426 c20.736,0,37.607,15.374,37.607,34.273l0.003,7.719h15.437v-7.719c0-18.898,16.871-34.273,37.606-34.273 c21.088,0,37.607,14.683,37.607,33.426c0,21.683-7.498,45.626-14.75,68.782c-6.096,19.463-11.898,37.992-13.338,54.941h-109.7 c-1.448-16.665-7.192-35.033-13.227-54.324C178.668,121.37,171.118,97.228,171.118,75.319z M308.555,214.478v18.214h-108.97 l0.028-7.59l-0.067,0.033v-10.657H308.555z M188.362,248.129h131.377c35.385,20.077,59.139,54.561,65.489,94.115 c-7.848,1.236-12.959,3.921-17.603,6.368c-5.604,2.953-10.03,5.285-19.839,5.285c-9.809,0-14.235-2.332-19.839-5.285 c-6.284-3.312-13.407-7.065-27.035-7.065c-13.626,0-20.749,3.753-27.033,7.065c-5.602,2.953-10.027,5.285-19.835,5.285 s-14.233-2.332-19.836-5.285c-6.284-3.312-13.407-7.065-27.033-7.065c-13.626,0-20.748,3.753-27.032,7.065 c-5.603,2.953-10.028,5.285-19.835,5.285c-9.807,0-14.232-2.332-19.835-5.285c-4.643-2.447-9.753-5.132-17.599-6.368 C129.223,302.692,152.98,268.207,188.362,248.129z M386.94,363.673v57.107c-8.831,1.095-14.343,3.985-19.317,6.605 c-5.604,2.953-10.03,5.285-19.839,5.285c-9.809,0-14.235-2.332-19.839-5.285c-6.284-3.312-13.407-7.065-27.035-7.065 c-13.626,0-20.749,3.753-27.033,7.065c-5.602,2.953-10.027,5.285-19.835,5.285s-14.233-2.332-19.836-5.285 c-6.284-3.312-13.407-7.065-27.033-7.065c-13.626,0-20.748,3.753-27.032,7.065c-5.603,2.953-10.028,5.285-19.835,5.285 c-9.807,0-14.232-2.332-19.835-5.285c-4.972-2.621-10.483-5.51-19.313-6.605v-57.107c0-2.026,0.062-4.039,0.15-6.048 c4.841,0.89,8.128,2.62,11.966,4.642c6.283,3.312,13.406,7.065,27.031,7.065c13.626,0,20.748-3.753,27.032-7.065 c5.603-2.953,10.028-5.285,19.835-5.285c9.808,0,14.234,2.332,19.836,5.285c6.284,3.312,13.406,7.065,27.032,7.065 c13.627,0,20.748-3.753,27.032-7.065c5.602-2.953,10.027-5.285,19.835-5.285c9.809,0,14.235,2.332,19.839,5.285 c6.284,3.312,13.407,7.065,27.035,7.065s20.751-3.753,27.035-7.065c3.839-2.023,7.127-3.753,11.97-4.643 C386.879,359.633,386.94,361.647,386.94,363.673z M121.16,496.563v-60.191c4.923,0.882,8.239,2.626,12.116,4.669 c6.283,3.312,13.406,7.065,27.031,7.065c13.626,0,20.748-3.753,27.032-7.065c5.603-2.953,10.028-5.285,19.835-5.285 c9.808,0,14.234,2.332,19.836,5.285c6.284,3.312,13.406,7.065,27.032,7.065c13.627,0,20.748-3.753,27.032-7.065 c5.602-2.953,10.027-5.285,19.835-5.285c9.809,0,14.235,2.332,19.839,5.285c6.284,3.312,13.407,7.065,27.035,7.065 s20.751-3.753,27.035-7.065c3.879-2.044,7.196-3.788,12.12-4.67v60.191H121.16V496.563z"/> <rect x="215.244" y="174.717" width="14.938" height="15.437"/> <rect x="246.581" y="174.717" width="14.938" height="15.437"/> <rect x="277.919" y="174.717" width="14.939" height="15.437"/> <rect x="136.885" y="473.836" width="14.938" height="15.437"/> <rect x="168.233" y="473.836" width="14.938" height="15.437"/> <rect x="199.57" y="473.836" width="14.938" height="15.437"/> <rect x="230.908" y="473.836" width="14.938" height="15.437"/> <rect x="262.255" y="473.836" width="14.939" height="15.437"/> <rect x="293.592" y="473.836" width="14.939" height="15.437"/> <rect x="324.93" y="473.836" width="14.938" height="15.437"/> <rect x="356.267" y="473.836" width="14.939" height="15.437"/> </g>
</svg>