<?xml version="1.0" encoding="iso-8859-1"?>
<!-- Uploaded to: SVG Repo, www.svgrepo.com, Generator: SVG Repo Mixer Tools -->
<svg height="800px" width="800px" version="1.1" id="Layer_1" xmlns="http://www.w3.org/2000/svg" xmlns:xlink="http://www.w3.org/1999/xlink" 
	 viewBox="0 0 511.982 511.982" xml:space="preserve">
<g>
	<path style="fill:#E6E9ED;" d="M383.987,123.975c0-11.733-9.594-21.343-21.343-21.343H149.331
		c-11.734,0-21.335,9.609-21.335,21.343v128.777c0,11.734,9.602,21.335,21.335,21.335h213.313c11.749,0,21.343-9.601,21.343-21.335
		V123.975z"/>
	<path style="fill:#E6E9ED;" d="M447.984,251.971c0-11.734-9.593-21.343-21.342-21.343H85.333c-11.734,0-21.335,9.608-21.335,21.343
		v106.645c0,11.75,9.601,21.344,21.335,21.344h341.31c11.749,0,21.342-9.594,21.342-21.344V251.971H447.984z"/>
</g>
<path style="fill:#ED5564;" d="M268.701,4.027c-4.491,0.016-8.812,1.031-12.71,2.984c-3.898-1.953-8.218-2.969-12.71-2.969
	c-15.695,0-28.468,12.765-28.468,28.452c0,25.733,32.14,45.217,35.804,47.357l5.374,3.126l5.375-3.125
	c3.664-2.141,35.812-21.624,35.812-47.357C297.178,16.807,284.396,4.043,268.701,4.027z"/>
<path style="opacity:0.2;fill:#FFFFFF;enable-background:new    ;" d="M268.701,4.027c-1.812,0.016-3.601,0.188-5.343,0.516
	c13.163,2.499,23.132,14.077,23.132,27.952c0,25.733-32.124,45.217-35.788,47.357l-0.047,0.016l5.336,3.109l5.375-3.125
	c3.664-2.141,35.812-21.624,35.812-47.357C297.178,16.807,284.396,4.043,268.701,4.027z"/>
<path style="fill:#E6E9ED;" d="M511.982,379.96c0-11.719-9.594-21.344-21.343-21.344H21.335C9.601,358.616,0,368.241,0,379.96
	v106.652c0,11.75,9.601,21.343,21.335,21.343h469.304c11.749,0,21.343-9.593,21.343-21.343L511.982,379.96L511.982,379.96z"/>
<path style="fill:#D770AD;" d="M490.639,379.96H21.335C9.601,379.96,0,389.553,0,401.303v26.593
	c11.289,10,26.14,16.062,42.413,16.062c22.179,0,41.717-11.281,53.201-28.438c11.484,17.156,31.03,28.438,53.209,28.438
	c22.343,0,42.006-11.469,53.459-28.812c11.445,17.344,31.108,28.812,53.451,28.812c22.351,0,42.007-11.469,53.46-28.812
	c11.452,17.344,31.107,28.812,53.451,28.812c22.357,0,42.029-11.469,53.467-28.812c11.438,17.344,31.123,28.812,53.467,28.812
	c16.266,0,31.124-6.062,42.404-16.062v-26.593C511.982,389.553,502.388,379.96,490.639,379.96z"/>
<path style="fill:#EC87C0;" d="M490.639,358.616H21.335C9.601,358.616,0,368.241,0,379.96v26.592
	c11.289,10,26.14,16.062,42.413,16.062c22.179,0,41.717-11.281,53.201-28.405c11.484,17.124,31.03,28.405,53.209,28.405
	c22.343,0,42.006-11.438,53.459-28.812c11.445,17.374,31.108,28.812,53.451,28.812c22.351,0,42.007-11.438,53.46-28.812
	c11.452,17.374,31.107,28.812,53.451,28.812c22.357,0,42.029-11.438,53.467-28.812c11.438,17.374,31.123,28.812,53.467,28.812
	c16.266,0,31.124-6.062,42.404-16.062V379.96C511.982,368.241,502.388,358.616,490.639,358.616z"/>
<path style="fill:#D770AD;" d="M148.823,187.973c22.343,0,42.006-11.468,53.459-28.812c11.445,17.344,31.108,28.812,53.451,28.812
	c22.351,0,42.007-11.468,53.46-28.812c11.452,17.344,31.107,28.812,53.451,28.812c7.5,0,14.671-1.297,21.343-3.656v-60.342H127.995
	v60.514C134.527,186.739,141.526,187.973,148.823,187.973z"/>
<path style="fill:#EC87C0;" d="M127.995,123.975v39.187c6.531,2.25,13.531,3.469,20.828,3.469c22.343,0,42.006-11.453,53.459-28.812
	c11.445,17.358,31.108,28.812,53.451,28.812c22.351,0,42.007-11.453,53.46-28.812c11.452,17.358,31.107,28.812,53.451,28.812
	c7.5,0,14.671-1.281,21.343-3.641v-39.015c0-11.733-9.594-21.343-21.343-21.343H149.331
	C137.597,102.633,127.995,112.242,127.995,123.975z"/>
<path style="fill:#D770AD;" d="M95.614,287.525c11.484,17.155,31.03,28.437,53.209,28.437c22.343,0,42.006-11.469,53.459-28.812
	c11.445,17.343,31.108,28.812,53.451,28.812c22.351,0,42.007-11.469,53.46-28.812c11.452,17.343,31.107,28.812,53.451,28.812
	c22.357,0,42.029-11.469,53.467-28.812c7.562,11.468,18.718,20.374,31.873,25.062v-60.24H63.998v60.271
	C76.997,307.555,88.052,298.837,95.614,287.525z"/>
<path style="fill:#EC87C0;" d="M63.998,251.971v38.928c13-4.655,24.054-13.405,31.616-24.693
	c11.484,17.132,31.03,28.412,53.209,28.412c22.343,0,42.006-11.437,53.459-28.803c11.445,17.366,31.108,28.803,53.451,28.803
	c22.351,0,42.007-11.437,53.46-28.803c11.452,17.366,31.107,28.803,53.451,28.803c22.357,0,42.029-11.437,53.467-28.803
	c7.562,11.491,18.718,20.366,31.873,25.084v-38.928c0-11.734-9.593-21.343-21.342-21.343H85.333
	C73.599,230.629,63.998,240.237,63.998,251.971z"/>
</svg>