<?xml version="1.0" encoding="iso-8859-1"?>
<!-- Uploaded to: SVG Repo, www.svgrepo.com, Generator: SVG Repo Mixer Tools -->
<svg height="800px" width="800px" version="1.1" id="Layer_1" xmlns="http://www.w3.org/2000/svg" xmlns:xlink="http://www.w3.org/1999/xlink" 
	 viewBox="0 0 512 512" xml:space="preserve">
<path style="fill:#F5888E;" d="M357.828,19.469v61.409c0,9.955-8.069,18.012-18.012,18.012H105.72c-0.516,0-1.033-0.096-1.501-0.312
	c-0.973-0.456-1.897-1.021-2.774-1.633c-0.072-0.06-0.156-0.096-0.228-0.144c-0.048-0.036-0.096-0.072-0.144-0.108
	c-0.12-0.096-0.228-0.192-0.348-0.288c-0.348-0.264-0.672-0.528-0.997-0.817c-0.132-0.132-0.276-0.264-0.408-0.384
	c-0.312-0.3-0.612-0.612-0.901-0.937c-0.096-0.12-0.204-0.228-0.312-0.336c-0.372-0.444-0.732-0.901-1.057-1.381
	c-0.072-0.096-0.12-0.192-0.18-0.276c-0.276-0.396-0.528-0.805-0.757-1.225c-0.096-0.168-0.18-0.336-0.264-0.504
	c-0.204-0.384-0.384-0.769-0.564-1.177c-0.072-0.168-0.144-0.324-0.204-0.504c-0.228-0.564-0.432-1.129-0.6-1.729
	c-2.69-9.582,2.882-19.525,12.464-22.227l7.253-2.041l139.593-39.314l81.222-22.875c9.57-2.69,19.513,2.882,22.215,12.452
	C357.828,15.254,357.996,17.392,357.828,19.469z"/>
<path style="fill:#F76976;" d="M357.828,19.469v61.409c0,9.955-8.069,18.012-18.012,18.012h-86.025V23.552l81.222-22.875
	c9.57-2.69,19.513,2.882,22.215,12.452C357.828,15.254,357.996,17.392,357.828,19.469z"/>
<path style="fill:#FFDCE1;" d="M426.526,95.287v384.292c0,17.868-14.542,32.422-32.422,32.422H117.896
	c-17.88,0-32.422-14.554-32.422-32.422V95.287c0-17.868,14.542-32.422,32.422-32.422h276.208
	C411.984,62.866,426.526,77.42,426.526,95.287z"/>
<path style="fill:#F4CED2;" d="M426.526,95.287v384.292c0,17.868-14.542,32.422-32.422,32.422H254.559V62.866h139.545
	C411.984,62.866,426.526,77.42,426.526,95.287z"/>
<g>
	<path style="fill:#F5888E;" d="M328.925,354.3c0,9.943-8.069,18.012-18.012,18.012H200.487c-9.943,0-18.012-8.069-18.012-18.012
		c0-9.943,8.069-18.012,18.012-18.012h110.425C320.855,336.288,328.925,344.357,328.925,354.3z"/>
	<path style="fill:#F5888E;" d="M328.925,404.733c0,9.943-8.069,18.012-18.012,18.012H200.487c-9.943,0-18.012-8.069-18.012-18.012
		c0-9.943,8.069-18.012,18.012-18.012h110.425C320.855,386.721,328.925,394.791,328.925,404.733z"/>
</g>
<g>
	<path style="fill:#F76976;" d="M328.925,404.733c0,9.943-8.069,18.012-18.012,18.012h-56.353v-36.024h56.353
		C320.855,386.721,328.925,394.791,328.925,404.733z"/>
	<path style="fill:#F76976;" d="M310.913,372.312h-56.353v-36.024h56.353c9.943,0,18.012,8.069,18.012,18.012
		C328.925,364.242,320.855,372.312,310.913,372.312z"/>
</g>
<path style="fill:#F5888E;" d="M348.189,192.252c0,14.049-5.464,27.258-15.406,37.201l-65.972,65.972
	c-3.398,3.398-7.805,5.139-12.248,5.26c-0.168,0.012-0.324,0.012-0.492,0.012c-4.611,0-9.222-1.753-12.728-5.272
	c-0.012,0-0.012-0.012-0.012-0.012l-65.72-65.72c-9.57-8.958-14.914-22.935-14.674-38.438c0.228-15.082,5.644-28.387,14.878-36.648
	c20.546-20.065,53.58-19.909,73.945,0.456l4.311,4.311l0.492-0.492l3.831-3.819c20.51-20.522,53.88-20.51,74.389,0
	C342.725,164.994,348.189,178.203,348.189,192.252z"/>
<path style="fill:#F76976;" d="M348.189,192.252c0,14.049-5.464,27.258-15.406,37.201l-65.972,65.972
	c-3.398,3.398-7.805,5.139-12.248,5.26V158.882l3.831-3.819c20.51-20.522,53.88-20.51,74.389,0
	C342.725,164.994,348.189,178.203,348.189,192.252z"/>
</svg>