<!DOCTYPE svg PUBLIC "-//W3C//DTD SVG 1.1//EN" "http://www.w3.org/Graphics/SVG/1.1/DTD/svg11.dtd">
<!-- Uploaded to: SVG Repo, www.svgrepo.com, Transformed by: SVG Repo Mixer Tools -->
<svg version="1.1" id="Layer_1" xmlns="http://www.w3.org/2000/svg" xmlns:xlink="http://www.w3.org/1999/xlink" viewBox="0 0 392.598 392.598" xml:space="preserve" width="800px" height="800px" fill="#000000">
<g id="SVGRepo_bgCarrier" stroke-width="0"/>
<g id="SVGRepo_tracerCarrier" stroke-linecap="round" stroke-linejoin="round"/>
<g id="SVGRepo_iconCarrier"> <path style="fill:#FFAFCC;" d="M204.962,128.259c-4.073,6.271-13.188,6.271-17.325,0l0,0c-3.297-5.107-8.663-8.792-14.739-9.438 c-11.572-1.164-21.398,7.952-21.398,19.329c0,13.446,24.242,40.339,44.735,58.57c20.558-18.554,44.865-45.576,44.865-58.57 c0-11.378-9.826-20.493-21.398-19.329C213.624,119.467,208.259,123.152,204.962,128.259z"/> <rect x="42.699" y="229.172" style="fill:#FFAFCC;" width="24.436" height="141.576"/> <rect x="21.818" y="181.139" style="fill:#FFFFFF;" width="66.069" height="26.246"/> <rect x="325.527" y="229.172" style="fill:#FFAFCC;" width="24.436" height="141.576"/> <rect x="304.711" y="181.139" style="fill:#FFFFFF;" width="66.069" height="26.246"/> <path style="fill:#FFAFCC;" d="M323.006,159.354h31.224c-5.301-76.671-74.085-137.568-157.867-137.568S43.798,82.683,38.497,159.354 h31.095c5.236-61.414,60.057-109.899,126.707-109.899S317.77,97.875,323.006,159.354z"/> <path style="fill:#194F82;" d="M381.705,159.354h-5.689C370.78,70.594,292.17,0,196.299,0S21.818,70.594,16.582,159.354h-5.624 c-6.012,0-10.925,4.848-10.925,10.925v48.032c0,6.012,4.848,10.925,10.925,10.925h9.956v152.436c0,6.012,4.848,10.925,10.925,10.925 h46.158c6.012,0,10.925-4.848,10.925-10.925V229.172h9.956c6.012,0,10.925-4.848,10.925-10.925v-48.032 c0-6.012-4.848-10.925-10.925-10.925h-7.37c4.848-46.028,44.347-82.812,93.867-87.531v27.798c-4.59-1.681-9.438-2.715-14.481-2.715 c-22.691,0-41.244,18.489-41.244,41.244c0,30.448,49.713,73.18,59.669,81.39l0.388,0.323c3.879,3.168,9.438,3.168,13.188-0.065 l0.388-0.323c10.02-8.339,59.604-51.588,59.604-81.325c0-22.691-18.489-41.244-41.244-41.244c-5.042,0-9.891,1.034-14.481,2.715 V71.758c49.584,4.784,89.083,41.503,93.867,87.531h-7.37c-6.012,0-10.925,4.848-10.925,10.925v48.032 c0,6.012,4.848,10.925,10.925,10.925h9.956v152.436c0,6.012,4.848,10.925,10.925,10.925h46.222c6.012,0,10.925-4.848,10.925-10.925 V229.172h9.956c6.012,0,10.925-4.848,10.925-10.925v-48.032C392.566,164.202,387.717,159.354,381.705,159.354z M370.78,207.386 h-66.069v-26.246h66.069V207.386z M349.899,370.747h-24.436V229.172h24.436V370.747z M241.099,138.149 c0,12.994-24.372,40.016-44.865,58.57c-20.493-18.23-44.735-45.123-44.735-58.57c0-11.378,9.826-20.493,21.398-19.329 c6.077,0.646,11.442,4.331,14.739,9.438l0,0c4.073,6.271,13.188,6.271,17.325,0c3.297-5.107,8.663-8.792,14.739-9.438 C231.273,117.657,241.099,126.772,241.099,138.149z M196.299,49.455c-66.715,0-121.471,48.549-126.707,109.899h-31.16 c5.301-76.671,74.085-137.568,157.867-137.568s152.566,60.897,157.867,137.568h-31.16C317.77,97.875,263.014,49.455,196.299,49.455z M87.887,207.386H21.818v-26.246h66.069C87.887,181.139,87.887,207.386,87.887,207.386z M67.071,370.747H42.699V229.172h24.436 v141.576H67.071z"/> </g>
</svg>