<svg width="19" height="13" viewBox="0 0 19 13" fill="none" xmlns="http://www.w3.org/2000/svg">
<path fill-rule="evenodd" clip-rule="evenodd" d="M6.66668 0C6.30799 0 5.98954 0.18362 5.8761 0.455847L5.04277 2.45585C4.95806 2.65915 5.00068 2.88263 5.15731 3.05647C5.31394 3.23032 5.56547 3.33333 5.83334 3.33333H12.5C12.7679 3.33333 13.0194 3.23032 13.176 3.05647C13.3327 2.88263 13.3753 2.65915 13.2906 2.45585L12.4573 0.455847C12.3438 0.18362 12.0253 0 11.6667 0H6.66668Z" fill="#FF8F9C"/>
<path fill-rule="evenodd" clip-rule="evenodd" d="M0 2.66667C0 2.29848 0.3731 2 0.833333 2H17.5C17.9602 2 18.3333 2.29848 18.3333 2.66667V12C18.3333 12.3682 17.9602 12.6667 17.5 12.6667H0.833333C0.3731 12.6667 0 12.3682 0 12V2.66667ZM6.66667 7.33333C6.66667 6.22873 7.78592 5.33333 9.16667 5.33333C10.5474 5.33333 11.6667 6.22873 11.6667 7.33333C11.6667 8.43793 10.5474 9.33333 9.16667 9.33333C7.78592 9.33333 6.66667 8.43793 6.66667 7.33333ZM9.16667 4C6.86548 4 5 5.4924 5 7.33333C5 9.17427 6.86548 10.6667 9.16667 10.6667C11.4678 10.6667 13.3333 9.17427 13.3333 7.33333C13.3333 5.4924 11.4678 4 9.16667 4Z" fill="#FF8F9C"/>
</svg>
