<svg width="239" height="19" viewBox="0 0 239 19" fill="none" xmlns="http://www.w3.org/2000/svg">
<path d="M16.8229 6.65625H13.141C13.1524 6.16761 13.0899 5.73579 12.9535 5.36079C12.8172 4.98011 12.6126 4.65625 12.3399 4.3892C12.0729 4.12216 11.7462 3.92045 11.3598 3.78409C10.9734 3.64205 10.5388 3.57102 10.0558 3.57102C9.124 3.57102 8.26889 3.80398 7.49048 4.26989C6.71207 4.7358 6.05582 5.41193 5.52173 6.2983C4.98764 7.17898 4.61832 8.24432 4.41378 9.49432C4.21491 10.6989 4.22628 11.7074 4.44787 12.5199C4.66946 13.3324 5.0615 13.946 5.624 14.3608C6.19218 14.7699 6.89957 14.9744 7.74616 14.9744C8.26889 14.9744 8.76605 14.9091 9.23764 14.7784C9.70923 14.642 10.1382 14.4489 10.5246 14.1989C10.9166 13.9432 11.2575 13.6335 11.5473 13.2699C11.8428 12.9062 12.0729 12.4943 12.2376 12.0341H15.945C15.7121 12.8352 15.3484 13.608 14.8541 14.3523C14.3655 15.0966 13.7604 15.7614 13.0388 16.3466C12.3172 16.9261 11.4962 17.3864 10.5757 17.7273C9.65525 18.0682 8.64673 18.2386 7.55014 18.2386C5.96491 18.2386 4.60412 17.875 3.46775 17.1477C2.33707 16.4205 1.52173 15.3722 1.02173 14.0028C0.52173 12.6335 0.42798 10.983 0.74048 9.05114C1.05298 7.18182 1.66378 5.59659 2.57287 4.29545C3.48764 2.98864 4.59843 1.99716 5.90525 1.32102C7.21775 0.644886 8.62116 0.306818 10.1155 0.306818C11.1553 0.306818 12.0956 0.448863 12.9365 0.732954C13.7774 1.01705 14.4933 1.43182 15.0842 1.97727C15.6808 2.51704 16.1297 3.17898 16.4308 3.96307C16.732 4.74716 16.8626 5.64489 16.8229 6.65625ZM20.5231 18H16.5685L25.4918 0.545454H30.2475L33.3668 18H29.4123L27.2901 4.53409H27.1538L20.5231 18ZM21.4265 11.1392H30.7674L30.2731 14.0199H20.9322L21.4265 11.1392ZM46.8235 5.61648C46.8519 4.90625 46.6445 4.35795 46.2013 3.97159C45.7638 3.58523 45.1019 3.39204 44.2155 3.39204C43.6132 3.39204 43.0905 3.47727 42.6473 3.64773C42.2041 3.8125 41.849 4.04261 41.582 4.33807C41.3206 4.62784 41.1587 4.96307 41.0962 5.34375C41.0337 5.65625 41.0536 5.92898 41.1558 6.16193C41.2638 6.39489 41.4314 6.59659 41.6587 6.76705C41.8916 6.93182 42.1672 7.0767 42.4854 7.2017C42.8036 7.32102 43.1416 7.4233 43.4996 7.50852L44.9996 7.88352C45.7326 8.05398 46.3916 8.28125 46.9769 8.56534C47.5678 8.84943 48.0621 9.19886 48.4598 9.61364C48.8632 10.0284 49.1473 10.517 49.3121 11.0795C49.4769 11.642 49.4996 12.2869 49.3803 13.0142C49.1985 14.0824 48.7752 15.0085 48.1104 15.7926C47.4456 16.571 46.5735 17.1761 45.4939 17.608C44.4144 18.0341 43.1644 18.2472 41.7439 18.2472C40.3348 18.2472 39.1445 18.0312 38.1729 17.5994C37.2013 17.1676 36.4939 16.5284 36.0507 15.6818C35.6132 14.8295 35.4826 13.7756 35.6587 12.5199H39.2297C39.1672 13.1051 39.2524 13.5937 39.4854 13.9858C39.724 14.3722 40.0791 14.6648 40.5507 14.8636C41.0223 15.0568 41.5763 15.1534 42.2127 15.1534C42.8433 15.1534 43.403 15.0625 43.8916 14.8807C44.386 14.6989 44.7865 14.446 45.0933 14.1222C45.4002 13.7983 45.5877 13.4261 45.6558 13.0057C45.724 12.6136 45.6644 12.2841 45.4769 12.017C45.2894 11.75 44.9882 11.5227 44.5735 11.3352C44.1644 11.142 43.6558 10.9716 43.0479 10.8239L41.224 10.3466C39.8149 9.98864 38.7496 9.42898 38.028 8.66761C37.3064 7.90625 37.0479 6.88068 37.2524 5.59091C37.4343 4.53409 37.8746 3.6108 38.5735 2.82102C39.278 2.02557 40.1644 1.40909 41.2326 0.971591C42.3064 0.528409 43.4797 0.306818 44.7524 0.306818C46.0479 0.306818 47.1416 0.53125 48.0337 0.980114C48.9257 1.4233 49.5763 2.04261 49.9854 2.83807C50.3945 3.63352 50.5195 4.55966 50.3604 5.61648H46.8235ZM51.2758 18L54.1735 0.545454H57.8639L56.6707 7.74716H64.1622L65.3554 0.545454H69.0372L66.1395 18H62.4576L63.6508 10.7898H56.1593L54.9662 18H51.2758ZM92.6713 9.51136C92.3531 11.375 91.7366 12.9574 90.8219 14.2585C89.9128 15.5597 88.802 16.5483 87.4895 17.2244C86.1827 17.9006 84.7736 18.2386 83.2622 18.2386C81.677 18.2386 80.3105 17.8778 79.1628 17.1562C78.0207 16.4347 77.194 15.392 76.6827 14.0284C76.1713 12.6591 76.0747 11.0085 76.3929 9.0767C76.6997 7.20739 77.3105 5.62216 78.2253 4.32102C79.1401 3.0142 80.2565 2.01989 81.5747 1.33807C82.8929 0.650568 84.3105 0.306818 85.8276 0.306818C87.4014 0.306818 88.7594 0.670454 89.9014 1.39773C91.0491 2.125 91.8758 3.17614 92.3815 4.55114C92.8929 5.92045 92.9895 7.57386 92.6713 9.51136ZM88.998 9.0767C89.1969 7.87784 89.1883 6.87216 88.9724 6.05966C88.7622 5.24148 88.3758 4.62216 87.8133 4.2017C87.2508 3.78125 86.5406 3.57102 85.6827 3.57102C84.7508 3.57102 83.8957 3.80398 83.1173 4.26989C82.3446 4.7358 81.6912 5.41193 81.1571 6.2983C80.6287 7.17898 80.2622 8.25 80.0577 9.51136C79.8531 10.7159 79.8588 11.7216 80.0747 12.5284C80.2963 13.3352 80.6912 13.946 81.2594 14.3608C81.8332 14.7699 82.5463 14.9744 83.3986 14.9744C84.3247 14.9744 85.1713 14.7472 85.9383 14.2926C86.7111 13.8324 87.3616 13.1648 87.8901 12.2898C88.4185 11.4091 88.7878 10.3381 88.998 9.0767ZM111.727 0.545454L108.83 18H105.642L99.8893 7.0142H99.7529L97.9205 18H94.2302L97.1279 0.545454H100.367L106.094 11.5227H106.239L108.054 0.545454H111.727ZM124.186 18H117.913L120.811 0.545454H126.964C128.72 0.545454 130.178 0.903409 131.337 1.61932C132.501 2.33523 133.322 3.3608 133.8 4.69602C134.277 6.02557 134.362 7.61364 134.055 9.46023C133.76 11.2443 133.172 12.7756 132.291 14.054C131.41 15.3267 130.283 16.304 128.908 16.9858C127.533 17.6619 125.959 18 124.186 18ZM122.132 14.8381H124.399C125.496 14.8381 126.456 14.6335 127.28 14.2244C128.109 13.8153 128.788 13.1847 129.317 12.3324C129.851 11.4801 130.229 10.3892 130.45 9.05966C130.66 7.7983 130.646 6.77557 130.408 5.99148C130.175 5.2017 129.723 4.625 129.053 4.26136C128.382 3.89205 127.501 3.70739 126.41 3.70739H123.982L122.132 14.8381ZM135.614 18L138.512 0.545454H150.273L149.762 3.58807H141.691L141.009 7.74716H148.475L147.964 10.7898H140.498L139.816 14.9574H147.921L147.41 18H135.614ZM150.55 18L153.447 0.545454H157.138L154.751 14.9574H162.234L161.723 18H150.55ZM170.995 0.545454L168.097 18H164.407L167.304 0.545454H170.995ZM177.424 0.545454L179.453 13.8068H179.615L186.032 0.545454H190.123L181.209 18H176.453L173.325 0.545454H177.424ZM189.566 18L192.464 0.545454H204.226L203.714 3.58807H195.643L194.961 7.74716H202.427L201.916 10.7898H194.45L193.768 14.9574H201.873L201.362 18H189.566ZM204.502 18L207.399 0.545454H214.286C215.604 0.545454 216.689 0.778409 217.542 1.24432C218.399 1.71023 219.002 2.37216 219.348 3.23011C219.701 4.08239 219.783 5.08807 219.596 6.24716C219.402 7.40625 218.985 8.40057 218.343 9.23011C217.706 10.0597 216.877 10.6989 215.854 11.1477C214.837 11.5909 213.658 11.8125 212.317 11.8125H207.706L208.218 8.84659H212.223C212.928 8.84659 213.53 8.75 214.03 8.55682C214.53 8.36364 214.925 8.07386 215.215 7.6875C215.51 7.30114 215.703 6.82102 215.794 6.24716C215.891 5.66193 215.857 5.1733 215.692 4.78125C215.527 4.38352 215.229 4.08239 214.797 3.87784C214.365 3.66761 213.797 3.5625 213.093 3.5625H210.604L208.192 18H204.502ZM215.24 10.0568L218.266 18H214.192L211.26 10.0568H215.24ZM221.781 0.545454H225.914L228.65 8.0625H228.838L234.045 0.545454H238.179L229.946 11.8295L228.914 18H225.25L226.281 11.8295L221.781 0.545454Z" fill="black"/>
</svg>
