<svg width="20" height="20" viewBox="0 0 20 20" fill="none" xmlns="http://www.w3.org/2000/svg">
<path d="M6.49627 3.21836C6.77883 3.5142 6.93435 3.88176 6.93435 4.25241V4.8272H8.30291C8.82028 4.8272 9.33852 4.78685 9.84494 4.70686L10.8771 4.5448V4.13794H11.8746L13.0674 4.701V4.25241C13.0674 3.88176 13.223 3.5142 13.5055 3.21802L13.9436 2.7584C14.2262 2.46221 14.3817 2.09466 14.3817 1.724C14.3817 1.35334 14.2262 0.985782 13.9436 0.689944L13.8735 0.615812C13.506 0.230326 12.9202 0 12.3078 0C11.7847 0 11.2932 0.160332 10.9235 0.451343L10.0009 1.17715L9.07874 0.451343C8.709 0.160332 8.21748 0 7.69442 0C7.08198 0 6.49627 0.230326 6.12829 0.616502L6.05907 0.689255C5.77564 0.986127 5.62012 1.35334 5.62012 1.724C5.62012 2.09466 5.77563 2.46221 6.05819 2.75805L6.49627 3.21836Z" fill="#FF8F9C"/>
<path d="M12.7094 7.98136L13.2618 6.24219L12.7133 6.50113L11.6689 8.14479L12.7094 7.98136Z" fill="#FF8F9C"/>
<path d="M15.8691 8.1279L15.0705 6.45251L14.625 6.24219L15.1809 7.99239L15.8691 8.1279Z" fill="#FF8F9C"/>
<path d="M11.7529 4.88281V6.14754L13.0921 5.51518L11.7529 4.88281Z" fill="#FF8F9C"/>
<path d="M16.1346 4.88281L14.7954 5.51518L16.1346 6.14754V4.88281Z" fill="#FF8F9C"/>
<path d="M5.4111 14.8285H5.76945C6.63684 14.8285 7.45298 15.0943 8.06629 15.5774C8.58278 15.9839 9.26969 16.2077 9.99996 16.2077C10.7302 16.2077 11.4171 15.9839 11.9336 15.5774C12.5469 15.0947 13.3631 14.8285 14.2305 14.8285H14.5888C15.2004 14.1785 16.1642 13.7941 17.1985 13.7941H17.9116C17.4464 12.9831 16.922 12.1925 16.3473 11.4219C15.6985 11.5229 15.1198 11.8187 14.7448 12.2615L14.6147 12.4149H14.23C13.314 12.4149 12.4523 12.6956 11.8048 13.2055C11.3295 13.5796 10.6715 13.7941 9.99952 13.7941C9.32751 13.7941 8.66952 13.5796 8.19421 13.2055C7.54629 12.6956 6.68503 12.4149 5.76901 12.4149H5.38438L5.25427 12.2615C4.87927 11.8187 4.30057 11.5229 3.65178 11.4219C3.07702 12.1925 2.55308 12.9835 2.0874 13.7941H2.80059C3.83621 13.7941 4.79998 14.1789 5.4111 14.8285Z" fill="#FF8F9C"/>
<path d="M19.922 18.478C19.5203 17.1077 18.971 15.7737 18.2884 14.4824H17.1994C16.4047 14.4824 15.667 14.7931 15.2258 15.3137L15.0537 15.5168H14.231C13.5975 15.5168 13.0013 15.7109 12.5536 16.0637C11.8715 16.6005 10.9651 16.896 10.0004 16.896C9.03579 16.896 8.12941 16.6005 7.44732 16.0637C6.99961 15.7113 6.40338 15.5168 5.76992 15.5168H4.94721L4.77505 15.3137C4.3339 14.7931 3.59662 14.4824 2.80151 14.4824H1.71245C1.02992 15.7737 0.480571 17.1077 0.0788541 18.478L0 18.7452C1.14864 19.0593 5.00372 19.9992 10 19.9992C14.9963 19.9992 18.8514 19.0593 20 18.7452L19.922 18.478Z" fill="#FF8F9C"/>
<path d="M6.67748 6.90023L6.53641 7.01126C6.2981 7.19883 6.07074 7.3926 5.84863 7.58983H6.31957C7.93695 7.58983 9.52191 7.1709 10.8191 6.41406C9.7979 6.73128 8.70096 6.90023 7.60357 6.90023H6.67748Z" fill="#FF8F9C"/>
<path d="M10.8773 5.25L10.0169 5.38551C9.45439 5.47412 8.87745 5.51929 8.30313 5.51929H6.93457V6.20889H7.60395C8.7285 6.20889 9.85392 6.0127 10.8773 5.64411V5.25Z" fill="#FF8F9C"/>
<path d="M5.84502 11.726C6.96737 11.7411 8.0192 12.0922 8.81475 12.7183C9.1271 12.9642 9.55904 13.1048 10.0006 13.1048C10.4422 13.1048 10.8741 12.9642 11.1865 12.7183C11.982 12.0922 13.0343 11.7411 14.1562 11.726C14.7822 11.0888 15.739 10.7078 16.7694 10.6919C16.3536 10.0051 15.8608 9.34755 15.3031 8.72794L14.4585 8.56175L13.9433 6.9405L13.4246 8.57313L10.0843 9.09895L11.4822 6.89844H11.4577C9.98923 7.78664 8.17296 8.27764 6.31946 8.27764H5.11693C4.3814 9.02585 3.75057 9.83268 3.23145 10.6919C4.2618 10.7078 5.21857 11.0888 5.84502 11.726Z" fill="#FF8F9C"/>
</svg>
