<svg width="13" height="15" viewBox="0 0 13 15" fill="none" xmlns="http://www.w3.org/2000/svg">
<path fill-rule="evenodd" clip-rule="evenodd" d="M3.68364 0.661333C3.02634 0.627416 2.67757 0.780105 2.48386 0.937288C2.35645 1.04066 2.28851 1.15356 2.25173 1.24686C1.96252 1.30888 1.71929 1.45618 1.57158 1.6456C1.19862 1.60947 0.793077 1.72692 0.531055 1.98676C0.268658 2.24695 0.213602 2.58607 0.339744 2.86682C0.0718788 3.07613 -0.0641511 3.40093 0.0295568 3.7256C0.123115 4.04986 0.423639 4.29543 0.779519 4.39167C0.78671 4.44728 0.800868 4.50259 0.821692 4.5567C0.817871 4.57366 0.816224 4.59104 0.816898 4.6086C0.895924 6.67008 1.78214 8.1582 2.6342 9.12312C2.44139 9.06912 2.24529 9.0367 2.05487 9.0367C1.61405 9.0367 1.00476 9.17387 0.509781 9.91497C0.428583 10.0365 0.486036 10.1879 0.637946 10.2528C0.789856 10.3178 0.979145 10.2719 1.06027 10.1503C1.38843 9.65903 1.76267 9.53612 2.05487 9.53612C2.32484 9.53612 2.60559 9.63841 2.8578 9.76006C3.02274 9.83964 3.17562 9.92929 3.30634 10.0135L2.84274 9.95122C2.67757 9.92905 2.51989 10.0152 2.48559 10.1463C2.32124 10.7747 2.45802 11.296 2.81727 11.736C2.89989 11.8372 3.06117 11.8766 3.20027 11.8295L3.69383 11.6622C3.45802 11.8398 3.23031 12.0247 3.13338 12.1446C2.86731 12.4738 2.7948 12.8424 2.76806 13.2225C2.7584 13.3601 2.89023 13.4781 3.06222 13.4858C3.2342 13.4935 3.38169 13.3881 3.39135 13.2505C3.41188 12.9574 3.45233 12.6697 3.65757 12.4158C3.77195 12.2743 4.09068 12.0357 4.36469 11.8413L4.2715 12.0735C4.26364 12.0929 4.25885 12.1132 4.2572 12.1337L4.08911 14.2161C4.08349 14.285 4.11383 14.3527 4.17285 14.403C4.23188 14.4533 4.31428 14.4819 4.40057 14.4819H6.37525C6.46147 14.4819 6.54379 14.4534 6.60281 14.4031C6.66177 14.3528 6.69218 14.2853 6.68671 14.2164L6.52214 12.134C6.52117 12.1209 6.51877 12.1079 6.51517 12.095L6.48072 11.9724C7.2712 12.8032 8.26798 12.7426 8.74956 12.6533C9.17727 12.574 9.64888 12.3457 9.94229 12.02C10.043 11.9083 10.0113 11.752 9.8715 11.6715C9.7318 11.5909 9.5366 11.6162 9.43585 11.7281C9.2324 11.9539 8.90514 12.1118 8.60858 12.1668C8.24993 12.2333 7.51622 12.2581 6.93375 11.62L7.52753 11.8282C7.66986 11.8781 7.83637 11.8366 7.91817 11.731C8.27817 11.2662 8.40978 10.7441 8.32529 10.1684C8.3154 10.1006 8.2712 10.039 8.20304 9.99796C8.1348 9.95691 8.04866 9.94001 7.96446 9.95116L7.9515 9.95284C8.44177 9.7132 8.8984 9.44875 9.36356 9.17549C9.66424 8.99889 9.9727 8.83098 10.3166 8.71107C10.9407 8.49348 11.6422 8.44177 12.3165 8.49163C12.4881 8.50427 12.6402 8.40318 12.656 8.26595C12.6719 8.12872 12.5454 8.00701 12.374 7.99437C11.5958 7.9369 10.7873 8.00222 10.0672 8.2533C9.68057 8.38808 9.3321 8.57444 8.99413 8.77291C8.57031 9.0219 8.1542 9.26376 7.7109 9.48482C9.18476 7.81435 9.86371 5.33387 9.96079 4.95634C9.98971 4.89109 10.0088 4.82379 10.0177 4.75601C10.3735 4.6599 10.674 4.41426 10.7675 4.09001C10.8589 3.77324 10.7317 3.45636 10.4766 3.24662C10.6726 2.96042 10.7794 2.56869 10.3966 2.176C10.4636 1.62295 10.3126 1.32237 10.1202 1.1674C9.88574 0.978577 9.5557 0.951311 9.23742 1.01279C9.12971 1.03359 9.02454 1.06421 8.92956 1.09723C8.78701 0.714667 8.52214 0.549393 8.26956 0.481258C7.90693 0.383521 7.50836 0.503191 7.32499 0.572345C7.0942 0.454292 6.82079 0.405933 6.56296 0.430861C6.36574 0.177918 5.99765 0 5.5778 0C5.15795 0 4.78993 0.177858 4.59248 0.430861C4.27735 0.40036 3.939 0.479461 3.68364 0.661333ZM5.61263 11.1599C5.54529 11.172 5.47517 11.1783 5.40319 11.1783C5.36439 11.1783 5.32619 11.1764 5.28858 11.1729L4.96783 11.972C4.9927 11.9787 5.0181 11.984 5.04446 11.9864C5.31143 12.0108 5.56439 11.9459 5.82461 11.9141L5.61263 11.1599ZM4.51046 10.6815C4.0951 10.6257 3.05158 10.4856 3.05158 10.4856C3.01742 10.7831 3.07525 11.0471 3.21375 11.2826L4.59165 10.8158C4.55929 10.7735 4.53195 10.7286 4.51046 10.6815ZM6.2978 10.6776C6.27502 10.7282 6.24574 10.7762 6.2106 10.8212L7.51555 11.2787C7.65825 11.0336 7.72648 10.7699 7.72551 10.4889L6.2978 10.6776ZM5.72851 10.4244C5.72851 10.2832 5.58177 10.17 5.40319 10.17C5.2581 10.17 5.13398 10.2448 5.09255 10.3486C5.08304 10.3726 5.07787 10.398 5.07787 10.4244V10.4261C5.07907 10.5666 5.22536 10.679 5.40319 10.679C5.57884 10.679 5.72371 10.5694 5.72843 10.4314L5.72851 10.4263V10.4244ZM6.02319 9.85366C5.92993 9.95122 4.82529 9.9393 4.74701 9.87979C4.23195 9.50616 3.80716 8.87059 3.66027 8.24114C3.62866 8.10571 3.74049 7.97519 3.90986 7.9499C4.07914 7.92461 4.24229 8.01402 4.2739 8.14951C4.36956 8.55928 4.60034 8.97684 4.90019 9.28593C5.04154 9.43155 5.19682 9.55338 5.36169 9.6323C5.82491 9.36893 6.43248 8.91434 6.59622 8.07646C6.62289 7.94031 6.78267 7.84707 6.95285 7.86834C7.12304 7.88968 7.23959 8.0175 7.213 8.15365C7.04843 8.99512 6.51772 9.5185 6.02319 9.85366ZM6.21795 3.99497C5.98776 3.99832 5.76334 3.94775 5.57787 3.85354C5.3548 3.9668 5.07532 4.01702 4.79727 3.98622C4.92169 4.13992 5.06813 4.30088 5.13525 4.45261C5.20491 4.60986 5.17008 4.77142 5.03293 4.92117L5.03046 4.92387C5.46581 4.94538 5.89959 4.95221 6.33158 4.94484C6.67443 4.43853 6.4336 4.11224 6.21795 3.99497ZM8.0163 2.71071C7.8781 2.93519 7.6333 3.10196 7.35472 3.17711C7.32132 3.42466 7.15173 3.66568 6.87555 3.82226C6.99128 3.94763 7.08544 4.10703 7.12019 4.29998C7.15195 4.4764 7.1351 4.68399 7.02896 4.92045C7.30019 4.90613 7.57075 4.88623 7.84064 4.86088C7.97929 4.84207 8.1127 4.76566 8.23278 4.67506C8.43997 4.51871 8.60671 4.31083 8.64888 4.16449C8.70222 3.97975 8.5978 3.7911 8.40663 3.71542C8.32251 3.6821 8.26154 3.62025 8.24072 3.54703C8.21989 3.4738 8.24132 3.39697 8.29914 3.33783C8.42956 3.20437 8.41869 2.99925 8.26971 2.85148C8.20139 2.7837 8.1121 2.73618 8.0163 2.71071ZM3.42102 3.00243C3.40851 3.00422 3.3957 3.00548 3.38274 3.00602C3.23772 3.01261 3.09203 3.0684 2.99165 3.168C2.96252 3.19688 2.91435 3.27143 2.91113 3.27676C2.84506 3.40578 2.86162 3.5514 2.96222 3.65435C3.02004 3.7135 3.04147 3.79032 3.02064 3.86355C2.99982 3.93678 2.93885 3.99862 2.85473 4.03188C2.75398 4.07179 2.64828 4.13447 2.58723 4.23611C2.52649 4.33732 2.51278 4.47083 2.56222 4.64533C3.06394 4.73384 3.56356 4.80252 4.06072 4.85184C4.0778 4.84351 4.09607 4.83643 4.11547 4.83068C4.24671 4.79203 4.36349 4.74397 4.45083 4.68842C4.47982 4.66996 4.50506 4.65109 4.52469 4.63107C4.53068 4.62496 4.53787 4.61489 4.54199 4.60884C4.45443 4.42241 4.22708 4.22586 4.12019 4.0468C4.0348 3.90364 4.00311 3.76785 4.04282 3.64273C3.90686 3.5061 3.82334 3.3431 3.80102 3.17717C3.66312 3.13995 3.53353 3.08033 3.42102 3.00243ZM9.84499 2.43056C9.66911 2.30268 9.35682 2.28422 9.16341 2.35506C9.07892 2.38604 8.98154 2.3852 8.89787 2.3529C8.81413 2.3206 8.75278 2.26013 8.73053 2.18793C8.70424 2.10289 8.64903 1.99047 8.51577 1.92114C8.39757 1.85972 8.23075 1.83676 7.99682 1.86703C8.06858 1.97351 8.11487 2.09276 8.12963 2.21747C8.36589 2.26517 8.58963 2.37339 8.75562 2.53795C9.01802 2.7982 9.07308 3.13726 8.94686 3.41795C9.2148 3.62739 9.35083 3.95218 9.25712 4.27685C9.22087 4.4024 9.12843 4.56168 8.9972 4.71832C9.13135 4.69789 9.26521 4.67608 9.39884 4.653C9.3978 4.63628 9.39517 4.61963 9.39075 4.60315C9.37113 4.53004 9.39345 4.45375 9.45165 4.39527C9.50986 4.33678 9.59772 4.3022 9.6912 4.30106C9.90641 4.29849 10.1057 4.16366 10.1593 3.97771C10.2126 3.79296 10.1082 3.60425 9.91705 3.52857C9.83293 3.49525 9.77195 3.43347 9.75113 3.36024C9.73031 3.28701 9.75173 3.21019 9.80956 3.15104C9.95645 3.00069 10.1654 2.73228 9.88476 2.46364C9.87802 2.45723 9.87098 2.451 9.86371 2.44506C9.8572 2.44045 9.85098 2.4356 9.84499 2.43056ZM1.38072 2.13897C1.24536 2.15071 1.11113 2.20686 1.01697 2.30022C0.867984 2.448 0.857122 2.65312 0.987534 2.78658C1.04536 2.84578 1.06679 2.92261 1.04596 2.99584C1.02514 3.069 0.964163 3.13085 0.880044 3.16416C0.688883 3.23985 0.584463 3.42855 0.637796 3.6133C0.691429 3.79925 0.89068 3.93408 1.10589 3.93666C1.19929 3.9378 1.28723 3.97231 1.34544 4.03086C1.40364 4.08935 1.42596 4.16563 1.40634 4.23874C1.3912 4.29519 1.39652 4.35392 1.41817 4.40977C1.58252 4.44848 1.74664 4.48503 1.91068 4.51949C1.89592 4.31676 1.94499 4.15251 2.02454 4.01996C2.09742 3.89855 2.19802 3.80135 2.31016 3.72482C2.26169 3.61276 2.24192 3.49178 2.25233 3.37043C2.08551 3.33297 1.94986 3.2779 1.83914 3.2127C1.5345 3.03329 1.40604 2.77136 1.37173 2.51721C1.35338 2.381 1.36289 2.24857 1.38072 2.13897ZM4.61046 3.39661C4.61547 3.39955 4.68753 3.4397 4.72252 3.453C4.94109 3.5363 5.20034 3.49867 5.33787 3.36641C5.3972 3.30936 5.48506 3.2764 5.5778 3.2764C5.67053 3.2764 5.7584 3.30936 5.81772 3.36641C5.95525 3.49867 6.2145 3.5363 6.43308 3.453C6.64911 3.37079 6.77285 3.18957 6.72843 3.02406C6.70881 2.95095 6.73113 2.87467 6.78933 2.81618C6.84753 2.75763 6.9354 2.72306 7.02888 2.72198C7.24409 2.71934 7.44334 2.58457 7.49697 2.39856C7.55031 2.21381 7.44589 2.02517 7.25473 1.94948C7.17061 1.91616 7.10963 1.85432 7.08881 1.78109C7.06798 1.70793 7.08941 1.63104 7.14723 1.5719C7.27765 1.43844 7.26678 1.23332 7.1178 1.08554C6.96664 0.93561 6.71203 0.881618 6.51555 0.953528C6.43105 0.984509 6.33375 0.98373 6.25001 0.951371C6.16634 0.919071 6.10499 0.858607 6.08267 0.786397C6.03158 0.620884 5.81922 0.499356 5.5778 0.499356C5.33637 0.499356 5.12401 0.620884 5.07285 0.786397C5.05061 0.858607 4.98926 0.919071 4.90551 0.951371C4.82184 0.98373 4.72454 0.984509 4.63997 0.953528C4.44356 0.881618 4.18896 0.93561 4.03772 1.08554C3.88881 1.23332 3.87795 1.43844 4.00836 1.5719C4.06619 1.63104 4.08761 1.70793 4.06679 1.78109C4.04596 1.85432 3.98499 1.91616 3.90087 1.94948C3.70963 2.02517 3.60529 2.21381 3.65855 2.39856C3.71225 2.58457 3.9115 2.71934 4.12671 2.72198C4.22012 2.72306 4.30806 2.75763 4.36626 2.81618C4.42439 2.87467 4.44679 2.95095 4.42716 3.02406C4.39113 3.15829 4.46574 3.30289 4.61046 3.39661ZM5.60079 1.26466C5.06431 1.26466 4.63046 1.61061 4.63046 2.03494C4.63046 2.45933 5.06431 2.80527 5.60079 2.80527C6.13735 2.80527 6.57113 2.45933 6.57113 2.03494C6.57113 1.61061 6.13735 1.26466 5.60079 1.26466ZM5.60079 1.76402C5.7909 1.76402 5.94694 1.88464 5.94694 2.03494C5.94694 2.18529 5.7909 2.30586 5.60079 2.30586C5.41076 2.30586 5.25472 2.18529 5.25472 2.03494C5.25472 1.88464 5.41076 1.76402 5.60079 1.76402Z" fill="#FF8F9C"/>
</svg>
