<svg width="20" height="14" viewBox="0 0 20 14" fill="none" xmlns="http://www.w3.org/2000/svg">
<path d="M0 13.2207C0 13.4269 0.0916147 13.6247 0.25469 13.7706C0.417765 13.9164 0.638942 13.9984 0.869565 13.9984H12.6087V8.94336H0V13.2207Z" fill="#FF8F9C"/>
<path d="M16.9565 13.9984H19.1305C19.3611 13.9984 19.5823 13.9164 19.7453 13.7706C19.9084 13.6247 20 13.4269 20 13.2207V8.94336H16.9565V13.9984Z" fill="#FF8F9C"/>
<path d="M12.6087 3.22353V0H0.869565C0.638942 0 0.417765 0.0819352 0.25469 0.227781C0.0916147 0.373626 0 0.571435 0 0.777692V5.055H10.5609C10.7052 4.62161 10.9681 4.22722 11.3256 3.90746C11.6831 3.5877 12.1241 3.35265 12.6087 3.22353Z" fill="#FF8F9C"/>
<path d="M19.1305 0H16.9565V3.22353C17.4411 3.35265 17.8821 3.5877 18.2396 3.90746C18.5972 4.22722 18.86 4.62161 19.0044 5.055H20V0.777692C20 0.571435 19.9084 0.373626 19.7453 0.227781C19.5823 0.0819352 19.3611 0 19.1305 0Z" fill="#FF8F9C"/>
<path d="M17.7822 8.16315H19.9996V5.83008H19.1301C19.1301 7.04328 18.3561 7.64988 17.7822 8.16315Z" fill="#FF8F9C"/>
<path d="M10.4348 5.83008H0V8.16315H11.787C11.1348 7.57989 10.4348 7.04717 10.4348 5.83008Z" fill="#FF8F9C"/>
<path d="M13.478 9.68359V13.9998H16.0867V9.68359L14.7824 10.8501L13.478 9.68359Z" fill="#FF8F9C"/>
<path d="M16.0867 3.11077V0H13.478V3.11077C13.929 3.11011 14.3745 3.19909 14.7824 3.3713C15.1902 3.19909 15.6357 3.11011 16.0867 3.11077Z" fill="#FF8F9C"/>
<path d="M11.3047 5.83327C11.3046 6.33277 11.5194 6.81315 11.9047 7.17479L14.7829 9.74895L17.6612 7.17479C18.0465 6.81315 18.2613 6.33277 18.2612 5.83327C18.2612 4.0368 15.8003 3.36799 14.7829 4.27789C14.46 4.06125 14.0759 3.92932 13.6738 3.8969C13.2717 3.86447 12.8675 3.93283 12.5064 4.0943C12.1453 4.25577 11.8416 4.50399 11.6294 4.81113C11.4171 5.11827 11.3047 5.47221 11.3047 5.83327Z" fill="#FF8F9C"/>
</svg>
