<svg width="20" height="20" viewBox="0 0 20 20" fill="none" xmlns="http://www.w3.org/2000/svg">
<path d="M19.7461 3.5293C19.5173 3.4543 18.7584 2.77426 18.6719 2.56675C18.6579 2.43926 18.5379 2.33925 18.3929 2.33925C18.2478 2.33925 18.1306 2.43926 18.1166 2.56675C18.0831 2.64177 17.9018 2.85177 17.6451 3.08427C17.1624 2.59176 16.529 2.23174 15.7645 2.00673C14.7907 0.661671 12.4749 -0.135863 9.94699 0.0191419C6.78292 0.211655 4.20759 1.75672 3.05525 4.15433C2.68694 4.92186 2.48047 5.81689 2.44699 6.81194C2.4414 6.90695 2.4442 7.00444 2.4414 7.09944C2.24888 6.90444 2.11496 6.74193 2.08986 6.67693C2.07868 6.54693 1.95871 6.44442 1.81084 6.44442C1.66574 6.44442 1.54298 6.54693 1.53182 6.67693C1.4481 6.90945 0.516193 7.74197 0.256709 7.81948C0.114407 7.82949 0 7.93699 0 8.06698C0 8.1995 0.114407 8.307 0.256709 8.31699C0.516193 8.3945 1.4481 9.22704 1.53182 9.45955C1.54298 9.58956 1.66574 9.68957 1.81084 9.68957C1.95871 9.68957 2.07868 9.58956 2.08986 9.45955C2.11775 9.38955 2.26005 9.21204 2.4749 9.00204C2.50559 9.55205 2.54743 10.0796 2.5865 10.5971C2.72042 12.3022 2.84598 13.9147 2.26564 14.2272C2.15123 14.2898 2.08986 14.4098 2.10937 14.5323C2.12891 14.6523 2.22657 14.7523 2.35213 14.7823C2.6451 14.8573 2.90179 14.8923 3.13059 14.8923C4.1797 14.8923 4.64286 14.1548 5.06697 13.0897C5.22043 13.6272 5.47155 14.1447 5.80915 14.6223L5.69197 14.8748L2.47211 17.7574C2.27121 17.9399 2.15123 18.1749 2.13449 18.4249C2.12054 18.6799 2.22099 18.9225 2.41072 19.095C2.60045 19.2625 2.85157 19.3475 3.10826 19.3475C3.39286 19.3475 3.68304 19.245 3.90904 19.045L7.12891 16.1623L7.25725 16.1123C7.50558 16.3123 7.76786 16.4999 8.04967 16.6749C8.22824 18.1474 8.15849 19.06 7.8432 19.385C7.76507 19.4625 7.68136 19.4975 7.56418 19.5C7.41071 19.5025 7.28796 19.6175 7.29073 19.755C7.29353 19.89 7.41909 20 7.56975 20C7.57254 20 7.57254 20 7.57534 20C7.84599 19.995 8.08315 19.8975 8.26173 19.715C8.66908 19.2975 8.78906 18.4524 8.64677 17.0049C9.42802 17.3874 10.2204 17.5899 10.971 17.5899C11.7745 17.5899 12.6702 17.3199 13.5073 16.8374C13.4542 18.6024 13.5742 19.91 14.6987 20H14.721C14.8661 20 14.986 19.9025 15 19.7725C15.0139 19.635 14.8995 19.5125 14.7461 19.5C14.1044 19.45 14.0262 18.2724 14.0625 16.9324C14.4727 17.2724 15.0112 17.4724 15.5859 17.4724C16.8303 17.4724 17.8432 16.5673 17.8432 15.4548C17.8432 14.6023 17.2377 13.8472 16.3672 13.5597C16.4509 13.3697 16.5262 13.1697 16.6016 12.9522C16.6657 12.9572 16.7327 12.9647 16.7941 12.9647C17.9101 12.9647 18.7918 12.3822 19.1964 11.3496C19.6094 10.2896 19.389 9.08203 18.7249 8.58451C18.9509 7.16945 18.9342 5.9594 18.6774 4.98436C18.7751 4.76934 19.5173 4.10432 19.7461 4.02932C19.8884 4.01682 20 3.90932 20 3.77931C20 3.6493 19.8884 3.5418 19.7461 3.5293ZM2.54466 8.24199H2.54186C2.47768 8.2945 2.08427 8.61202 1.80805 8.93453C1.55413 8.63451 1.17188 8.2945 0.837053 8.06698C1.17188 7.84198 1.55413 7.50197 1.80805 7.20196C2.05079 7.48697 2.38839 7.76698 2.49721 7.85698C2.50559 7.86448 2.51674 7.87449 2.52512 7.88198C2.61998 7.95698 2.70091 8.01699 2.77623 8.06949C2.70647 8.11699 2.63115 8.1745 2.54466 8.24199ZM4.88003 4.37184C4.88003 4.24433 4.98327 4.14183 5.11719 4.12433C5.2846 4.05432 5.76731 3.6218 5.84542 3.4718C5.86496 3.35179 5.98214 3.25928 6.12165 3.25928C6.26116 3.25928 6.37836 3.35179 6.39789 3.4718C6.47601 3.6218 6.9587 4.05432 7.12612 4.12433C7.26004 4.14183 7.36328 4.24433 7.36328 4.37184C7.36328 4.49684 7.26004 4.59934 7.12612 4.61684C6.9587 4.68685 6.47601 5.11936 6.39789 5.26936C6.37836 5.38938 6.26116 5.48439 6.12165 5.48439C5.98214 5.48439 5.86496 5.38938 5.84542 5.26936C5.76731 5.11936 5.2846 4.68685 5.11719 4.61684C4.98327 4.59934 4.88003 4.49684 4.88003 4.37184ZM7.19867 15.5923L7.03404 15.6548L6.25838 14.9573L6.91127 13.5447C7.09264 13.5647 7.25446 13.6072 7.41071 13.6572L7.1847 14.1698C7.12891 14.2973 7.19867 14.4423 7.34375 14.4948C7.37723 14.5048 7.41071 14.5098 7.44421 14.5098C7.48326 14.5098 7.52232 14.5023 7.5586 14.4873C7.52791 14.5473 7.52232 14.6148 7.55301 14.6798C7.59487 14.7798 7.7009 14.8398 7.81249 14.8398C7.84599 14.8398 7.87947 14.8348 7.91295 14.8223L8.47935 14.6223C8.53795 14.7573 8.58538 14.8998 8.61329 15.0623L7.19867 15.5923ZM7.6981 14.3623C7.7009 14.3598 7.70369 14.3573 7.70369 14.3523L7.90178 13.9022C7.96038 13.9422 8.01898 13.9847 8.072 14.0322C8.12222 14.0772 8.16965 14.1273 8.21428 14.1797L7.70926 14.3573C7.70369 14.3573 7.7009 14.3623 7.6981 14.3623ZM17.2851 15.4548C17.2851 16.2898 16.5234 16.9724 15.5859 16.9724C14.9693 16.9724 14.4029 16.6724 14.1071 16.1873C14.1071 16.1873 14.1071 16.1873 14.1044 16.1873C14.0485 16.0923 14.0039 15.9923 13.9676 15.8923C13.9202 15.7498 13.8923 15.6023 13.8923 15.4548C13.8923 14.6148 14.654 13.9322 15.5859 13.9322C15.7059 13.9322 15.8231 13.9447 15.9375 13.9647C16.7188 14.1123 17.2851 14.7373 17.2851 15.4548ZM16.5792 9.58205C16.5792 9.70705 16.5764 9.83206 16.5709 9.95458C16.5709 9.98708 16.5709 10.0196 16.5681 10.0521C16.5625 10.1771 16.5541 10.2996 16.5458 10.4221C16.543 10.4496 16.543 10.4771 16.5402 10.5046C16.529 10.6371 16.5151 10.7671 16.4983 10.8971C16.4983 10.9146 16.4955 10.9296 16.4927 10.9471C16.4202 11.5371 16.3002 12.0947 16.1328 12.6222C16.0324 12.9247 15.9291 13.1947 15.8203 13.4422C15.7422 13.4347 15.6641 13.4322 15.5859 13.4322C14.3443 13.4322 13.3343 14.3398 13.3343 15.4548C13.3343 15.5348 13.3426 15.6123 13.351 15.6923C13.3538 15.7098 13.3566 15.7248 13.3594 15.7423C13.3705 15.8023 13.3817 15.8598 13.3984 15.9198C13.404 15.9423 13.4124 15.9673 13.418 15.9898C13.4347 16.0423 13.4542 16.0948 13.4766 16.1473C13.4849 16.1698 13.4933 16.1923 13.5045 16.2148C13.5073 16.2223 13.51 16.2273 13.5128 16.2348C12.6981 16.7724 11.7578 17.0899 10.971 17.0899C10.173 17.0899 9.30804 16.8274 8.4682 16.3298C8.24499 16.1948 8.03572 16.0498 7.83203 15.8973L8.90905 15.4948C9.07366 15.4273 9.18248 15.2773 9.18248 15.1123C9.18248 15.1023 9.18248 15.0923 9.17969 15.0798C9.13226 14.7498 9.04018 14.4648 8.89508 14.2122C8.89508 14.2122 8.89508 14.2097 8.89231 14.2097V14.2072C8.88952 14.1998 8.88393 14.1898 8.88114 14.1822C8.76675 13.9872 8.62445 13.8172 8.46261 13.6747C8.30078 13.5322 8.12501 13.4122 7.89621 13.2972C7.59487 13.1597 7.25725 13.0722 6.88895 13.0397C6.70201 13.0222 6.52343 13.1122 6.42858 13.2872L6.07701 14.0422C5.70312 13.4147 5.4855 12.7272 5.44643 12.0222C5.399 11.2671 5.55804 10.5196 5.91518 9.82457C5.9654 9.72956 6.01841 9.63456 6.07701 9.53955C6.0826 9.52705 6.09096 9.51456 6.09934 9.50206C6.10491 9.49455 6.11049 9.48706 6.11329 9.47955C6.16071 9.40956 6.21373 9.34455 6.26395 9.27704C6.99497 8.28451 8.2394 7.59448 9.66518 7.41947C9.84096 7.39696 10.0139 7.37196 10.1841 7.34196C10.2539 7.32947 10.3209 7.31695 10.3906 7.30195C10.4883 7.28446 10.5859 7.26696 10.6836 7.24445C10.7589 7.22695 10.8343 7.20945 10.9096 7.18946C10.9961 7.16945 11.0798 7.14945 11.1607 7.12696C11.2388 7.10445 11.3114 7.08194 11.3867 7.05945C11.4648 7.03445 11.543 7.01195 11.6183 6.98695C11.6936 6.96194 11.7662 6.93444 11.8387 6.90945C11.9113 6.88194 11.9838 6.85444 12.0564 6.82444C12.1261 6.79694 12.1959 6.76694 12.2628 6.73943C12.3354 6.70693 12.4023 6.67693 12.4721 6.64442C12.5363 6.61194 12.6032 6.57943 12.6674 6.54693C12.7344 6.51193 12.7986 6.47692 12.8599 6.44192C12.9241 6.40693 12.9883 6.37192 13.0497 6.33441C13.0636 6.32442 13.0803 6.31691 13.0943 6.30691C13.1222 6.35192 13.1529 6.39441 13.1808 6.43693C13.2282 6.51693 13.2785 6.59694 13.3315 6.67194C13.3901 6.75693 13.4514 6.83944 13.5128 6.92195C13.5686 6.99695 13.6244 7.06944 13.683 7.13945C13.75 7.22196 13.8225 7.29947 13.8923 7.37945C13.9537 7.44446 14.0123 7.51197 14.0764 7.57447C14.1574 7.65698 14.2411 7.73448 14.3276 7.81198C14.3889 7.86698 14.4475 7.92449 14.5089 7.97949C14.6205 8.07199 14.7377 8.16199 14.8549 8.2495C14.8995 8.282 14.9386 8.31699 14.986 8.3495C15.1507 8.46701 15.3209 8.57702 15.4994 8.68452C15.5525 8.71702 15.611 8.74452 15.6641 8.77452C15.7952 8.84703 15.9263 8.92203 16.063 8.98952C16.1356 9.02703 16.2165 9.05953 16.2918 9.09454C16.3867 9.13704 16.4788 9.18454 16.5737 9.22453C16.5764 9.31455 16.5792 9.40455 16.5792 9.49205V9.58205ZM18.6691 11.1846C18.471 11.6897 17.9548 12.4847 16.755 12.4672C16.7578 12.4572 16.7606 12.4472 16.7634 12.4372C16.8276 12.2097 16.8806 11.9772 16.928 11.7372C16.9336 11.7096 16.9392 11.6821 16.9448 11.6546C16.9894 11.4121 17.0285 11.1671 17.0591 10.9121C17.0619 10.8946 17.0619 10.8746 17.0647 10.8546C17.1233 10.3271 17.1456 9.77456 17.1345 9.20454V9.17953C17.1401 9.17454 17.1456 9.16954 17.154 9.16453C17.1736 9.15204 17.1931 9.13954 17.2126 9.12704C17.2377 9.10704 17.2656 9.08953 17.2935 9.07203C17.3158 9.05953 17.3382 9.04704 17.3605 9.03454C17.3856 9.01952 17.4135 9.00452 17.4414 8.98952C17.4665 8.97703 17.4888 8.96453 17.5139 8.95453C17.5419 8.94202 17.567 8.93203 17.5949 8.92203C17.62 8.91202 17.6451 8.90203 17.673 8.89203C17.6981 8.88452 17.7232 8.87703 17.7483 8.87203C17.7762 8.86452 17.8041 8.85703 17.8292 8.85202C17.8544 8.84952 17.8795 8.84703 17.9046 8.84453C17.9325 8.84203 17.9604 8.83952 17.9855 8.83952C18.0134 8.84203 18.0385 8.84453 18.0636 8.84952C18.0887 8.85202 18.1138 8.85452 18.1361 8.85953C18.178 8.86952 18.2171 8.88452 18.2533 8.90453C18.2645 8.90953 18.2729 8.90953 18.284 8.91452C18.8337 9.20703 19.0179 10.2896 18.6691 11.1846ZM18.3956 4.47684C18.3901 4.47185 18.3845 4.46684 18.3817 4.46184C18.3343 4.40934 18.284 4.35684 18.2282 4.30182C18.2254 4.29934 18.2254 4.29684 18.2226 4.29433C18.1696 4.24182 18.1138 4.18933 18.058 4.13682C18.0413 4.11932 18.0218 4.10432 18.005 4.08932C17.9604 4.04933 17.9129 4.00932 17.8683 3.97182C17.8488 3.95432 17.8292 3.93932 17.8125 3.92432C17.7483 3.87181 17.6841 3.82431 17.62 3.77931C17.6758 3.7393 17.7372 3.6918 17.8041 3.63931C17.8069 3.63931 17.8069 3.63931 17.8069 3.6368C17.9241 3.5443 18.1892 3.31928 18.3956 3.08427C18.6049 3.32679 18.9007 3.5918 19.1741 3.77931C18.9007 3.96682 18.6049 4.23183 18.3956 4.47684Z" fill="#FF8F9C"/>
<path d="M1.20284 1.78383C1.36747 1.85382 1.85016 2.28632 1.93109 2.43633C1.95062 2.55632 2.06501 2.64882 2.20452 2.64882C2.34682 2.64882 2.46121 2.55632 2.48075 2.43633C2.55888 2.28632 3.04158 1.85382 3.20898 1.78383C3.34292 1.76633 3.44615 1.66382 3.44615 1.53632C3.44615 1.41132 3.34292 1.30882 3.20898 1.29132C3.04158 1.21883 2.55888 0.786316 2.48075 0.638824C2.46121 0.516327 2.34682 0.423828 2.20452 0.423828C2.06501 0.423828 1.95062 0.516327 1.93109 0.638824C1.85016 0.786316 1.36747 1.21883 1.20284 1.29132C1.06613 1.30882 0.962891 1.41132 0.962891 1.53632C0.962891 1.66382 1.06613 1.76633 1.20284 1.78383ZM2.20452 1.14133C2.33288 1.28133 2.49192 1.42133 2.64817 1.53632C2.49192 1.65132 2.33288 1.79382 2.20452 1.93382C2.07617 1.79382 1.91992 1.65132 1.76367 1.53632C1.91992 1.42133 2.07617 1.28133 2.20452 1.14133Z" fill="#FF8F9C"/>
<path d="M19.5786 17.9828C19.4447 17.9203 19.0708 17.5853 19.001 17.4653C18.9787 17.3478 18.8643 17.2578 18.7276 17.2578C18.5881 17.2578 18.4765 17.3478 18.4514 17.4653C18.3816 17.5853 18.0077 17.9203 17.8738 17.9828C17.7427 18.0028 17.645 18.1053 17.645 18.2278C17.645 18.3528 17.7427 18.4528 17.8738 18.4753C18.0077 18.5378 18.3816 18.8728 18.4514 18.9928C18.4765 19.1103 18.5881 19.1978 18.7276 19.1978C18.8643 19.1978 18.9787 19.1103 19.001 18.9928C19.0708 18.8728 19.4447 18.5378 19.5786 18.4753C19.7097 18.4528 19.8102 18.3528 19.8102 18.2278C19.8102 18.1053 19.7097 18.0028 19.5786 17.9828ZM18.7276 18.4978C18.6355 18.4028 18.5323 18.3103 18.4263 18.2278C18.5323 18.1478 18.6355 18.0528 18.7276 17.9603C18.8169 18.0528 18.9229 18.1478 19.0261 18.2278C18.9229 18.3103 18.8169 18.4028 18.7276 18.4978Z" fill="#FF8F9C"/>
<path d="M8.2602 10.2815C8.10734 10.4599 7.8632 10.6724 7.56797 10.6724C7.27179 10.6724 7.03051 10.4605 6.88023 10.2828C6.78746 10.173 6.61239 10.1506 6.48936 10.2345C6.36661 10.3179 6.3425 10.4746 6.43555 10.5848C6.76048 10.9692 7.15217 11.1724 7.56797 11.1724C7.98159 11.1724 8.37396 10.9696 8.7027 10.586C8.79657 10.4765 8.77355 10.3195 8.65134 10.2355C8.52914 10.1513 8.35407 10.1719 8.2602 10.2815Z" fill="#FF8F9C"/>
<path d="M15.1336 10.2828C14.9834 10.4605 14.7421 10.6724 14.4459 10.6724C14.1507 10.6724 13.9065 10.4599 13.7537 10.2815C13.6597 10.1717 13.4847 10.1514 13.3625 10.2355C13.2403 10.3195 13.2173 10.4765 13.3112 10.586C13.6399 10.9696 14.0323 11.1724 14.4459 11.1724C14.8617 11.1724 15.2534 10.9692 15.5783 10.5848C15.6714 10.4746 15.6472 10.3179 15.5245 10.2345C15.4012 10.1506 15.2263 10.173 15.1336 10.2828Z" fill="#FF8F9C"/>
<path d="M11.897 13.8472C11.3603 14.2091 10.6499 14.2076 10.1229 13.8481C9.99992 13.7641 9.82512 13.7858 9.73193 13.8955C9.63847 14.0054 9.66218 14.1622 9.78479 14.2458C10.1466 14.4928 10.5694 14.6233 11.0073 14.6233C11.4431 14.6233 11.8668 14.4931 12.2325 14.2468C12.3556 14.1638 12.3804 14.0072 12.2878 13.8967C12.1953 13.7866 12.0206 13.7644 11.897 13.8472Z" fill="#FF8F9C"/>
<path d="M15.1195 15.6826L15.0876 15.7112C14.9786 15.8088 14.9786 15.967 15.0876 16.0647C15.1421 16.1135 15.2135 16.1379 15.2849 16.1379C15.3563 16.1379 15.4277 16.1135 15.4822 16.0647L15.514 16.0361C15.623 15.9385 15.623 15.7803 15.514 15.6826C15.405 15.585 15.2285 15.585 15.1195 15.6826Z" fill="#FF8F9C"/>
<path d="M15.2483 15.0735C15.3196 15.0735 15.391 15.0491 15.4455 15.0002L15.4774 14.9717C15.5864 14.874 15.5864 14.7158 15.4774 14.6182C15.3684 14.5205 15.1919 14.5205 15.0829 14.6182L15.051 14.6467C14.942 14.7444 14.942 14.9026 15.051 15.0002C15.1055 15.0491 15.1769 15.0735 15.2483 15.0735Z" fill="#FF8F9C"/>
<path d="M16.4738 16.1711C16.5452 16.1711 16.6166 16.1467 16.6711 16.0979L16.703 16.0693C16.812 15.9717 16.812 15.8135 16.703 15.7158C16.594 15.6182 16.4174 15.6182 16.3084 15.7158L16.2766 15.7444C16.1676 15.842 16.1676 16.0002 16.2766 16.0979C16.3311 16.1467 16.4025 16.1711 16.4738 16.1711Z" fill="#FF8F9C"/>
</svg>
