<svg width="38" height="38" viewBox="0 0 38 38" fill="none" xmlns="http://www.w3.org/2000/svg">
<path d="M19 19C21.4864 19 23.871 18.0123 25.6291 16.2541C27.3873 14.496 28.375 12.1114 28.375 9.625C28.375 7.1386 27.3873 4.75403 25.6291 2.99587C23.871 1.23772 21.4864 0.25 19 0.25C16.5136 0.25 14.129 1.23772 12.3709 2.99587C10.6127 4.75403 9.625 7.1386 9.625 9.625C9.625 12.1114 10.6127 14.496 12.3709 16.2541C14.129 18.0123 16.5136 19 19 19ZM25.25 9.625C25.25 11.2826 24.5915 12.8723 23.4194 14.0444C22.2473 15.2165 20.6576 15.875 19 15.875C17.3424 15.875 15.7527 15.2165 14.5806 14.0444C13.4085 12.8723 12.75 11.2826 12.75 9.625C12.75 7.9674 13.4085 6.37768 14.5806 5.20558C15.7527 4.03348 17.3424 3.375 19 3.375C20.6576 3.375 22.2473 4.03348 23.4194 5.20558C24.5915 6.37768 25.25 7.9674 25.25 9.625ZM37.75 34.625C37.75 37.75 34.625 37.75 34.625 37.75H3.375C3.375 37.75 0.25 37.75 0.25 34.625C0.25 31.5 3.375 22.125 19 22.125C34.625 22.125 37.75 31.5 37.75 34.625ZM34.625 34.6125C34.6219 33.8438 34.1438 31.5312 32.025 29.4125C29.9875 27.375 26.1531 25.25 19 25.25C11.8438 25.25 8.0125 27.375 5.975 29.4125C3.85625 31.5312 3.38125 33.8438 3.375 34.6125H34.625Z" fill="#FAFAFA"/>
</svg>
