<svg width="20" height="20" viewBox="0 0 20 20" fill="none" xmlns="http://www.w3.org/2000/svg">
<path d="M3.07704 16.943V14.6426C3.07658 14.3548 3.00071 14.0713 2.85598 13.8168C2.71124 13.5623 2.50198 13.3443 2.24627 13.1816L2.28088 13.2602C2.55347 13.893 2.69316 14.5683 2.69242 15.2498V15.357C2.69242 15.4517 2.6519 15.5426 2.57977 15.6096C2.50764 15.6766 2.40981 15.7142 2.30781 15.7142C2.2058 15.7142 2.10797 15.6766 2.03584 15.6096C1.96371 15.5426 1.92319 15.4517 1.92319 15.357V15.2498C1.92432 14.6587 1.80287 14.073 1.5655 13.5246L1.53857 13.4603V20.0006H4.20011C3.47388 19.1238 3.07915 18.0492 3.07704 16.943Z" fill="#FF8F9C"/>
<path d="M3.45792 10.4907C5.21235 10.0904 6.77192 9.15606 7.88796 7.83666C9.00399 6.51727 9.61221 4.88881 9.61562 3.21099V3.0431C9.45408 2.93951 9.21562 2.77163 8.95408 2.56445C6.94027 2.79116 5.08221 3.68521 3.72132 5.08231C2.36043 6.47941 1.58815 8.28571 1.54639 10.1693L2.72716 7.70815C2.74573 7.66254 2.77417 7.62095 2.81071 7.58593C2.84725 7.55091 2.89112 7.52322 2.93963 7.50455C2.98813 7.48588 3.04024 7.47663 3.09274 7.47737C3.14524 7.47811 3.19702 7.48882 3.24489 7.50885C3.29276 7.52888 3.33571 7.55781 3.37109 7.59384C3.40647 7.62987 3.43353 7.67225 3.4506 7.71836C3.46768 7.76447 3.47441 7.81334 3.47037 7.86196C3.46634 7.91058 3.45163 7.95792 3.42716 8.00105L2.28485 10.3907L2.99254 9.9228C3.8598 9.34461 4.56322 8.57979 5.04254 7.69386C5.09261 7.61658 5.1723 7.55975 5.26562 7.53479C5.35894 7.50982 5.45898 7.51856 5.54564 7.55926C5.63231 7.59995 5.69919 7.66959 5.73286 7.75419C5.76652 7.83879 5.76449 7.93208 5.72716 8.01534C5.19583 8.99779 4.41746 9.84688 3.45792 10.4907Z" fill="#FF8F9C"/>
<path d="M16.7655 7.52955C16.8115 7.51007 16.8611 7.49924 16.9115 7.49768C16.962 7.49613 17.0123 7.50388 17.0595 7.52049C17.1067 7.53709 17.1499 7.56223 17.1866 7.59444C17.2233 7.62666 17.2527 7.6653 17.2732 7.70815L18.4502 10.1693C18.4056 8.28705 17.6329 6.48264 16.2734 5.08616C14.9138 3.68969 13.0583 2.79453 11.0463 2.56445C10.7848 2.77163 10.5463 2.93951 10.3848 3.0431V3.21099C10.3877 4.88945 10.9962 6.51859 12.1131 7.83818C13.23 9.15776 14.7908 10.0917 16.5463 10.4907C15.5838 9.8489 14.8037 8.99937 14.2732 8.01534C14.2359 7.93208 14.2339 7.83879 14.2675 7.75419C14.3012 7.66959 14.3681 7.59995 14.4547 7.55926C14.5414 7.51856 14.6414 7.50982 14.7348 7.53479C14.8281 7.55975 14.9078 7.61658 14.9578 7.69386C15.4372 8.57979 16.1406 9.34461 17.0078 9.9228L17.7155 10.3907L16.5732 8.00105C16.5523 7.95841 16.5406 7.91232 16.5389 7.86546C16.5372 7.81859 16.5456 7.77189 16.5635 7.72804C16.5814 7.6842 16.6084 7.64408 16.6431 7.61001C16.6778 7.57594 16.7194 7.54859 16.7655 7.52955Z" fill="#FF8F9C"/>
<path d="M8.28462 1.93593C8.10666 1.7411 7.95788 1.52482 7.84231 1.29297C5.61909 1.74782 3.62977 2.8941 2.20364 4.54208C0.777502 6.19005 5.9789e-05 8.2409 0 10.3552V19.9996H0.769231V10.3552C0.763286 8.35691 1.5121 6.41999 2.88532 4.88163C4.25853 3.34326 6.16918 2.30087 8.28462 1.93593Z" fill="#FF8F9C"/>
<path d="M2.69242 11.4277H1.53857V12.1421H2.69242C2.79443 12.1421 2.89226 12.1045 2.96438 12.0375C3.03651 11.9705 3.07704 11.8797 3.07704 11.7849C3.07704 11.6902 3.03651 11.5993 2.96438 11.5324C2.89226 11.4654 2.79443 11.4277 2.69242 11.4277Z" fill="#FF8F9C"/>
<path d="M16.9229 11.7849C16.9229 11.8797 16.9634 11.9705 17.0355 12.0375C17.1076 12.1045 17.2055 12.1421 17.3075 12.1421H18.4613V11.4277H17.3075C17.2055 11.4277 17.1076 11.4654 17.0355 11.5324C16.9634 11.5993 16.9229 11.6902 16.9229 11.7849Z" fill="#FF8F9C"/>
<path d="M18.4613 13.4603L18.4344 13.5246C18.197 14.073 18.0756 14.6587 18.0767 15.2498V15.357C18.0767 15.4517 18.0362 15.5426 17.9641 15.6096C17.8919 15.6766 17.7941 15.7142 17.6921 15.7142C17.5901 15.7142 17.4923 15.6766 17.4201 15.6096C17.348 15.5426 17.3075 15.4517 17.3075 15.357V15.2498C17.3068 14.5683 17.4464 13.893 17.719 13.2602L17.7536 13.1816C17.4979 13.3443 17.2887 13.5623 17.1439 13.8168C16.9992 14.0713 16.9233 14.3548 16.9229 14.6426V16.943C16.9208 18.0492 16.526 19.1238 15.7998 20.0006H18.4613V13.4603Z" fill="#FF8F9C"/>
<path d="M10.6772 1.91103L10.681 1.90745C11.1426 1.51096 11.5387 1.06089 11.5387 0.71083C11.5477 0.573529 11.5118 0.436913 11.4356 0.318959C11.3594 0.201006 11.2465 0.107243 11.1118 0.0500081C10.9668 -0.000219429 10.8087 -0.0079731 10.6588 0.027791C10.5089 0.0635552 10.3743 0.14112 10.2733 0.250041C10.2007 0.316963 10.1026 0.354516 10.0003 0.354516C9.89796 0.354516 9.79981 0.316963 9.72719 0.250041C9.65322 0.174514 9.56373 0.113486 9.464 0.0705463C9.36426 0.0276062 9.25629 0.00362056 9.14642 0C9.05782 0.000744398 8.97024 0.0177391 8.88873 0.0500081C8.75405 0.107243 8.64118 0.201006 8.56497 0.318959C8.48877 0.436913 8.4528 0.573529 8.46181 0.71083C8.46181 1.22877 9.33488 1.97889 10.0003 2.42182C10.2364 2.26395 10.4625 2.0934 10.6772 1.91103Z" fill="#FF8F9C"/>
<path d="M20 19.9999V10.3555C20.0004 8.24153 19.2231 6.19088 17.7968 4.54339C16.3705 2.89589 14.3809 1.75045 12.1577 1.29688C12.042 1.52563 11.8946 1.73938 11.7192 1.93269C13.8315 2.30456 15.7377 3.34949 17.109 4.88718C18.4804 6.42487 19.2308 8.35887 19.2308 10.3555V19.9999H20Z" fill="#FF8F9C"/>
</svg>
