<svg width="86" height="26" viewBox="0 0 86 26" fill="none" xmlns="http://www.w3.org/2000/svg">
<path d="M17.0312 19.5312C17.2604 18.9167 17.5 18.2552 17.75 17.5469C18 16.8385 18.2448 16.1094 18.4844 15.3594C18.724 14.599 18.9531 13.8333 19.1719 13.0625C19.401 12.2812 19.6042 11.5156 19.7812 10.7656L18.2656 5.79688C18.1615 5.45312 18.1667 5.15625 18.2812 4.90625C18.4062 4.64583 18.599 4.43229 18.8594 4.26562C19.1198 4.08854 19.4271 3.95833 19.7812 3.875C20.1458 3.79167 20.526 3.75 20.9219 3.75C21.2656 3.75 21.5729 3.77083 21.8438 3.8125C22.1146 3.84375 22.349 3.90625 22.5469 4C22.7552 4.09375 22.9271 4.22917 23.0625 4.40625C23.1979 4.57292 23.3073 4.79167 23.3906 5.0625L27.875 19.5C28.1146 18.8542 28.3646 18.1562 28.625 17.4062C28.8854 16.6562 29.1406 15.8854 29.3906 15.0938C29.6406 14.3021 29.8802 13.5 30.1094 12.6875C30.3385 11.875 30.5365 11.0781 30.7031 10.2969C30.8802 9.51562 31.0156 8.77083 31.1094 8.0625C31.2135 7.34375 31.2656 6.6875 31.2656 6.09375C31.2656 5.40625 31.2188 4.83333 31.125 4.375C31.0312 3.91667 30.9219 3.53646 30.7969 3.23438C30.6823 2.92188 30.5781 2.66667 30.4844 2.46875C30.3906 2.27083 30.3438 2.08854 30.3438 1.92188C30.3438 1.70312 30.401 1.52083 30.5156 1.375C30.6302 1.21875 30.776 1.08854 30.9531 0.984375C31.1302 0.880208 31.3229 0.807292 31.5312 0.765625C31.7396 0.713542 31.9375 0.6875 32.125 0.6875C32.5417 0.6875 32.8958 0.75 33.1875 0.875C33.4792 1 33.6823 1.21354 33.7969 1.51562C33.849 1.67188 33.8906 1.83854 33.9219 2.01562C33.9531 2.18229 33.974 2.34896 33.9844 2.51562C34.0052 2.67188 34.0156 2.82292 34.0156 2.96875C34.0156 3.10417 34.0156 3.21354 34.0156 3.29688C34.0156 3.73438 33.9427 4.33333 33.7969 5.09375C33.6615 5.85417 33.4688 6.71354 33.2188 7.67188C32.9792 8.61979 32.7031 9.64062 32.3906 10.7344C32.0781 11.8281 31.75 12.9323 31.4062 14.0469C31.0729 15.151 30.7344 16.2344 30.3906 17.2969C30.0469 18.3594 29.7188 19.3438 29.4062 20.25C29.1042 21.1458 28.8333 21.9375 28.5938 22.625C28.3646 23.3021 28.1875 23.8073 28.0625 24.1406C27.9792 24.3906 27.8646 24.5885 27.7188 24.7344C27.5833 24.8802 27.4219 24.9896 27.2344 25.0625C27.0573 25.1458 26.8594 25.1979 26.6406 25.2188C26.4323 25.2396 26.2135 25.25 25.9844 25.25C25.5677 25.25 25.224 25.2083 24.9531 25.125C24.6927 25.0417 24.4844 24.9375 24.3281 24.8125C24.1719 24.6875 24.0573 24.5521 23.9844 24.4062C23.9115 24.2604 23.8542 24.1302 23.8125 24.0156L20.7031 13.7969C20.3594 14.9323 20.0104 16.0521 19.6562 17.1562C19.3021 18.25 18.9635 19.2604 18.6406 20.1875C18.3281 21.1146 18.0469 21.9271 17.7969 22.625C17.5469 23.3125 17.3542 23.8177 17.2188 24.1406C17.1146 24.3906 16.9844 24.5885 16.8281 24.7344C16.6823 24.8802 16.5156 24.9896 16.3281 25.0625C16.151 25.1458 15.9583 25.1979 15.75 25.2188C15.5417 25.2396 15.3281 25.25 15.1094 25.25C14.6927 25.25 14.349 25.2083 14.0781 25.125C13.8177 25.0417 13.6094 24.9375 13.4531 24.8125C13.2969 24.6875 13.1771 24.5521 13.0938 24.4062C13.0208 24.2604 12.9635 24.1302 12.9219 24.0156L7.35938 5.42188C7.25521 5.06771 7.14062 4.77083 7.01562 4.53125C6.90104 4.28125 6.75521 4.07812 6.57812 3.92188C6.41146 3.76562 6.20312 3.65104 5.95312 3.57812C5.71354 3.50521 5.41667 3.46875 5.0625 3.46875C4.77083 3.46875 4.43229 3.54167 4.04688 3.6875C3.66146 3.82292 3.29167 4.03125 2.9375 4.3125C2.59375 4.58333 2.30208 4.92708 2.0625 5.34375C1.82292 5.75 1.70312 6.22396 1.70312 6.76562C1.70312 7.09896 1.74479 7.36458 1.82812 7.5625C1.92188 7.76042 2.02604 7.91146 2.14062 8.01562C2.25521 8.10938 2.36979 8.17188 2.48438 8.20312C2.60938 8.22396 2.69792 8.23438 2.75 8.23438C3.01042 8.23438 3.22396 8.19271 3.39062 8.10938C3.55729 8.01562 3.70833 7.92188 3.84375 7.82812C3.97917 7.72396 4.10417 7.63021 4.21875 7.54688C4.34375 7.45312 4.48438 7.40625 4.64062 7.40625C4.76562 7.40625 4.89583 7.4375 5.03125 7.5C5.17708 7.55208 5.30729 7.64062 5.42188 7.76562C5.54688 7.89062 5.65104 8.05729 5.73438 8.26562C5.81771 8.46354 5.85938 8.70833 5.85938 9C5.85938 9.41667 5.77604 9.77604 5.60938 10.0781C5.45312 10.3802 5.24479 10.6354 4.98438 10.8438C4.73438 11.0417 4.44271 11.1927 4.10938 11.2969C3.78646 11.3906 3.46354 11.4375 3.14062 11.4375C2.64062 11.4375 2.19271 11.349 1.79688 11.1719C1.41146 10.9948 1.08333 10.7552 0.8125 10.4531C0.552083 10.151 0.348958 9.80208 0.203125 9.40625C0.0677083 9 0 8.56771 0 8.10938C0 7.02604 0.208333 6.08333 0.625 5.28125C1.04167 4.46875 1.59375 3.79167 2.28125 3.25C2.96875 2.70833 3.75 2.30729 4.625 2.04688C5.5 1.77604 6.40104 1.64062 7.32812 1.64062C8.36979 1.64062 9.22396 1.80208 9.89062 2.125C10.5573 2.4375 11.0938 2.84375 11.5 3.34375C11.9167 3.84375 12.2448 4.40625 12.4844 5.03125C12.724 5.64583 12.9375 6.25521 13.125 6.85938L17.0312 19.5312ZM46.7812 22.9531C46.7812 23.7552 46.5677 24.3385 46.1406 24.7031C45.724 25.0677 45.0833 25.25 44.2188 25.25C43.3438 25.25 42.6979 25.0677 42.2812 24.7031C41.8646 24.3385 41.6562 23.7552 41.6562 22.9531V4.14062C41.6562 3.91146 41.6302 3.72917 41.5781 3.59375C41.526 3.45833 41.4531 3.35417 41.3594 3.28125C41.2656 3.19792 41.151 3.14583 41.0156 3.125C40.8906 3.09375 40.75 3.07812 40.5938 3.07812C40.3646 3.07812 40.0781 3.11458 39.7344 3.1875C39.401 3.26042 39.0469 3.36979 38.6719 3.51562C38.2969 3.66146 37.9167 3.84375 37.5312 4.0625C37.1562 4.27083 36.8177 4.51042 36.5156 4.78125C36.224 5.05208 35.9844 5.35417 35.7969 5.6875C35.6094 6.02083 35.5156 6.38021 35.5156 6.76562C35.5156 7.09896 35.5573 7.36458 35.6406 7.5625C35.7344 7.76042 35.8385 7.91146 35.9531 8.01562C36.0677 8.10938 36.1823 8.17188 36.2969 8.20312C36.4219 8.22396 36.5104 8.23438 36.5625 8.23438C36.8229 8.23438 37.0365 8.19271 37.2031 8.10938C37.3698 8.01562 37.5208 7.92188 37.6562 7.82812C37.7917 7.72396 37.9167 7.63021 38.0312 7.54688C38.1562 7.45312 38.2969 7.40625 38.4531 7.40625C38.5781 7.40625 38.7083 7.4375 38.8438 7.5C38.9896 7.55208 39.1198 7.64062 39.2344 7.76562C39.3594 7.89062 39.4635 8.05729 39.5469 8.26562C39.6302 8.46354 39.6719 8.70833 39.6719 9C39.6719 9.41667 39.5885 9.77604 39.4219 10.0781C39.2656 10.3802 39.0573 10.6354 38.7969 10.8438C38.5469 11.0417 38.2552 11.1927 37.9219 11.2969C37.599 11.3906 37.276 11.4375 36.9531 11.4375C36.4531 11.4375 36 11.3542 35.5938 11.1875C35.1979 11.0104 34.8594 10.7708 34.5781 10.4688C34.2969 10.1667 34.0833 9.8125 33.9375 9.40625C33.7917 9 33.7188 8.56771 33.7188 8.10938C33.7188 7.39062 33.849 6.73438 34.1094 6.14062C34.3698 5.53646 34.724 4.99479 35.1719 4.51562C35.6302 4.03646 36.1615 3.61979 36.7656 3.26562C37.3802 2.90104 38.0417 2.59896 38.75 2.35938C39.4583 2.11979 40.1979 1.94271 40.9688 1.82812C41.7396 1.70312 42.5104 1.64062 43.2812 1.64062C44.1354 1.64062 44.7969 1.72396 45.2656 1.89062C45.7448 2.04688 46.0938 2.23958 46.3125 2.46875C46.5417 2.69792 46.6771 2.9375 46.7188 3.1875C46.7604 3.4375 46.7812 3.64583 46.7812 3.8125V22.9531ZM59.5312 23.9062C60.0938 23.9062 60.6771 23.8646 61.2812 23.7812C61.8854 23.6875 62.4375 23.5312 62.9375 23.3125C63.4375 23.0938 63.849 22.8073 64.1719 22.4531C64.5052 22.0885 64.6719 21.6354 64.6719 21.0938C64.6719 20.7708 64.6094 20.5312 64.4844 20.375C64.3698 20.2188 64.2396 20.1094 64.0938 20.0469C63.9271 19.974 63.7396 19.9479 63.5312 19.9688C63.375 19.9688 63.2344 19.9896 63.1094 20.0312C62.9844 20.0625 62.8646 20.1042 62.75 20.1562C62.6458 20.1979 62.5417 20.2396 62.4375 20.2812C62.3438 20.3125 62.2448 20.3281 62.1406 20.3281C62.026 20.3281 61.9115 20.3021 61.7969 20.25C61.6823 20.1979 61.5729 20.1198 61.4688 20.0156C61.3646 19.9115 61.2812 19.7812 61.2188 19.625C61.1562 19.4583 61.125 19.2656 61.125 19.0469C61.125 18.6302 61.2031 18.276 61.3594 17.9844C61.5156 17.6927 61.7135 17.4531 61.9531 17.2656C62.1927 17.0781 62.4583 16.9427 62.75 16.8594C63.0417 16.7656 63.3229 16.7188 63.5938 16.7188C64.125 16.7188 64.5885 16.8073 64.9844 16.9844C65.3906 17.1615 65.7292 17.3958 66 17.6875C66.2708 17.9792 66.474 18.3177 66.6094 18.7031C66.7448 19.0781 66.8125 19.4688 66.8125 19.875C66.8125 20.9062 66.5938 21.7656 66.1562 22.4531C65.7188 23.1302 65.0938 23.6719 64.2812 24.0781C63.4792 24.4844 62.5052 24.7708 61.3594 24.9375C60.2135 25.1042 58.9323 25.1875 57.5156 25.1875C55.8281 25.1875 54.4583 25.125 53.4062 25C52.3542 24.8646 51.5365 24.6927 50.9531 24.4844C50.3698 24.2656 49.974 24.0208 49.7656 23.75C49.5677 23.4792 49.4688 23.2031 49.4688 22.9219C49.4688 22.6823 49.5052 22.4323 49.5781 22.1719C49.651 21.9115 49.7656 21.6198 49.9219 21.2969C50.0885 20.974 50.2969 20.6042 50.5469 20.1875C50.7969 19.7604 51.099 19.2656 51.4531 18.7031L59.2656 6.21875C59.3906 6.01042 59.5208 5.80208 59.6562 5.59375C59.7917 5.375 59.9115 5.16667 60.0156 4.96875C60.1302 4.76042 60.2188 4.56771 60.2812 4.39062C60.3542 4.21354 60.3906 4.0625 60.3906 3.9375C60.3906 3.66667 60.2604 3.46354 60 3.32812C59.7396 3.18229 59.4323 3.08333 59.0781 3.03125C58.724 2.96875 58.3646 2.9375 58 2.9375C57.6354 2.92708 57.3438 2.92188 57.125 2.92188C56.5625 2.92188 55.974 2.97396 55.3594 3.07812C54.7448 3.18229 54.1771 3.35417 53.6562 3.59375C53.1458 3.82292 52.7188 4.13021 52.375 4.51562C52.0417 4.89062 51.875 5.35938 51.875 5.92188C51.875 6.23438 51.9323 6.46875 52.0469 6.625C52.1719 6.78125 52.3073 6.88542 52.4531 6.9375C52.6198 7.01042 52.8125 7.03646 53.0312 7.01562C53.1771 7.01562 53.3073 7 53.4219 6.96875C53.5469 6.92708 53.6615 6.88542 53.7656 6.84375C53.8698 6.79167 53.9688 6.75 54.0625 6.71875C54.1667 6.67708 54.2708 6.65625 54.375 6.65625C54.4479 6.65625 54.5417 6.68229 54.6562 6.73438C54.7708 6.78646 54.8802 6.86458 54.9844 6.96875C55.0885 7.07292 55.1771 7.20833 55.25 7.375C55.3229 7.53125 55.3594 7.71875 55.3594 7.9375C55.3594 8.34375 55.2812 8.69271 55.125 8.98438C54.9792 9.26562 54.7865 9.5 54.5469 9.6875C54.3177 9.86458 54.0625 10 53.7812 10.0938C53.5 10.1771 53.2292 10.2188 52.9688 10.2188C52.4479 10.2188 51.9896 10.125 51.5938 9.9375C51.1979 9.75 50.8646 9.50521 50.5938 9.20312C50.3333 8.90104 50.1354 8.56771 50 8.20312C49.8646 7.83854 49.7969 7.47396 49.7969 7.10938C49.7969 6.38021 49.9323 5.73958 50.2031 5.1875C50.474 4.625 50.8385 4.14583 51.2969 3.75C51.7656 3.35417 52.3021 3.02604 52.9062 2.76562C53.5208 2.49479 54.1667 2.28125 54.8438 2.125C55.5208 1.96875 56.2083 1.85938 56.9062 1.79688C57.6042 1.73438 58.276 1.70312 58.9219 1.70312C60.1615 1.70312 61.224 1.75521 62.1094 1.85938C63.0052 1.96354 63.7396 2.10938 64.3125 2.29688C64.8854 2.48438 65.3073 2.70833 65.5781 2.96875C65.849 3.22917 65.9844 3.52083 65.9844 3.84375C65.9844 4.0625 65.9583 4.29167 65.9062 4.53125C65.8542 4.77083 65.7604 5.04688 65.625 5.35938C65.5 5.67188 65.3229 6.03125 65.0938 6.4375C64.875 6.83333 64.599 7.30208 64.2656 7.84375L56.2031 20.875C55.9948 21.2083 55.8125 21.5365 55.6562 21.8594C55.5 22.1719 55.4219 22.4635 55.4219 22.7344C55.4219 22.9635 55.4948 23.1562 55.6406 23.3125C55.7969 23.4583 56.0365 23.5781 56.3594 23.6719C56.6927 23.7552 57.1198 23.8177 57.6406 23.8594C58.1615 23.8906 58.7917 23.9062 59.5312 23.9062ZM78.1562 23.9062C78.7188 23.9062 79.3021 23.8646 79.9062 23.7812C80.5104 23.6875 81.0625 23.5312 81.5625 23.3125C82.0625 23.0938 82.474 22.8073 82.7969 22.4531C83.1302 22.0885 83.2969 21.6354 83.2969 21.0938C83.2969 20.7708 83.2344 20.5312 83.1094 20.375C82.9948 20.2188 82.8646 20.1094 82.7188 20.0469C82.5521 19.974 82.3646 19.9479 82.1562 19.9688C82 19.9688 81.8594 19.9896 81.7344 20.0312C81.6094 20.0625 81.4896 20.1042 81.375 20.1562C81.2708 20.1979 81.1667 20.2396 81.0625 20.2812C80.9688 20.3125 80.8698 20.3281 80.7656 20.3281C80.651 20.3281 80.5365 20.3021 80.4219 20.25C80.3073 20.1979 80.1979 20.1198 80.0938 20.0156C79.9896 19.9115 79.9062 19.7812 79.8438 19.625C79.7812 19.4583 79.75 19.2656 79.75 19.0469C79.75 18.6302 79.8281 18.276 79.9844 17.9844C80.1406 17.6927 80.3385 17.4531 80.5781 17.2656C80.8177 17.0781 81.0833 16.9427 81.375 16.8594C81.6667 16.7656 81.9479 16.7188 82.2188 16.7188C82.75 16.7188 83.2135 16.8073 83.6094 16.9844C84.0156 17.1615 84.3542 17.3958 84.625 17.6875C84.8958 17.9792 85.099 18.3177 85.2344 18.7031C85.3698 19.0781 85.4375 19.4688 85.4375 19.875C85.4375 20.9062 85.2188 21.7656 84.7812 22.4531C84.3438 23.1302 83.7188 23.6719 82.9062 24.0781C82.1042 24.4844 81.1302 24.7708 79.9844 24.9375C78.8385 25.1042 77.5573 25.1875 76.1406 25.1875C74.4531 25.1875 73.0833 25.125 72.0312 25C70.9792 24.8646 70.1615 24.6927 69.5781 24.4844C68.9948 24.2656 68.599 24.0208 68.3906 23.75C68.1927 23.4792 68.0938 23.2031 68.0938 22.9219C68.0938 22.6823 68.1302 22.4323 68.2031 22.1719C68.276 21.9115 68.3906 21.6198 68.5469 21.2969C68.7135 20.974 68.9219 20.6042 69.1719 20.1875C69.4219 19.7604 69.724 19.2656 70.0781 18.7031L77.8906 6.21875C78.0156 6.01042 78.1458 5.80208 78.2812 5.59375C78.4167 5.375 78.5365 5.16667 78.6406 4.96875C78.7552 4.76042 78.8438 4.56771 78.9062 4.39062C78.9792 4.21354 79.0156 4.0625 79.0156 3.9375C79.0156 3.66667 78.8854 3.46354 78.625 3.32812C78.3646 3.18229 78.0573 3.08333 77.7031 3.03125C77.349 2.96875 76.9896 2.9375 76.625 2.9375C76.2604 2.92708 75.9688 2.92188 75.75 2.92188C75.1875 2.92188 74.599 2.97396 73.9844 3.07812C73.3698 3.18229 72.8021 3.35417 72.2812 3.59375C71.7708 3.82292 71.3438 4.13021 71 4.51562C70.6667 4.89062 70.5 5.35938 70.5 5.92188C70.5 6.23438 70.5573 6.46875 70.6719 6.625C70.7969 6.78125 70.9323 6.88542 71.0781 6.9375C71.2448 7.01042 71.4375 7.03646 71.6562 7.01562C71.8021 7.01562 71.9323 7 72.0469 6.96875C72.1719 6.92708 72.2865 6.88542 72.3906 6.84375C72.4948 6.79167 72.5938 6.75 72.6875 6.71875C72.7917 6.67708 72.8958 6.65625 73 6.65625C73.0729 6.65625 73.1667 6.68229 73.2812 6.73438C73.3958 6.78646 73.5052 6.86458 73.6094 6.96875C73.7135 7.07292 73.8021 7.20833 73.875 7.375C73.9479 7.53125 73.9844 7.71875 73.9844 7.9375C73.9844 8.34375 73.9062 8.69271 73.75 8.98438C73.6042 9.26562 73.4115 9.5 73.1719 9.6875C72.9427 9.86458 72.6875 10 72.4062 10.0938C72.125 10.1771 71.8542 10.2188 71.5938 10.2188C71.0729 10.2188 70.6146 10.125 70.2188 9.9375C69.8229 9.75 69.4896 9.50521 69.2188 9.20312C68.9583 8.90104 68.7604 8.56771 68.625 8.20312C68.4896 7.83854 68.4219 7.47396 68.4219 7.10938C68.4219 6.38021 68.5573 5.73958 68.8281 5.1875C69.099 4.625 69.4635 4.14583 69.9219 3.75C70.3906 3.35417 70.9271 3.02604 71.5312 2.76562C72.1458 2.49479 72.7917 2.28125 73.4688 2.125C74.1458 1.96875 74.8333 1.85938 75.5312 1.79688C76.2292 1.73438 76.901 1.70312 77.5469 1.70312C78.7865 1.70312 79.849 1.75521 80.7344 1.85938C81.6302 1.96354 82.3646 2.10938 82.9375 2.29688C83.5104 2.48438 83.9323 2.70833 84.2031 2.96875C84.474 3.22917 84.6094 3.52083 84.6094 3.84375C84.6094 4.0625 84.5833 4.29167 84.5312 4.53125C84.4792 4.77083 84.3854 5.04688 84.25 5.35938C84.125 5.67188 83.9479 6.03125 83.7188 6.4375C83.5 6.83333 83.224 7.30208 82.8906 7.84375L74.8281 20.875C74.6198 21.2083 74.4375 21.5365 74.2812 21.8594C74.125 22.1719 74.0469 22.4635 74.0469 22.7344C74.0469 22.9635 74.1198 23.1562 74.2656 23.3125C74.4219 23.4583 74.6615 23.5781 74.9844 23.6719C75.3177 23.7552 75.7448 23.8177 76.2656 23.8594C76.7865 23.8906 77.4167 23.9062 78.1562 23.9062Z" fill="white"/>
</svg>
