<svg width="342" height="99" viewBox="0 0 342 99" fill="none" xmlns="http://www.w3.org/2000/svg">
<path d="M68.125 76.125C69.0417 73.6667 70 71.0208 71 68.1875C72 65.3542 72.9792 62.4375 73.9375 59.4375C74.8958 56.3958 75.8125 53.3333 76.6875 50.25C77.6042 47.125 78.4167 44.0625 79.125 41.0625L73.0625 21.1875C72.6458 19.8125 72.6667 18.625 73.125 17.625C73.625 16.5833 74.3958 15.7292 75.4375 15.0625C76.4792 14.3542 77.7083 13.8333 79.125 13.5C80.5833 13.1667 82.1042 13 83.6875 13C85.0625 13 86.2917 13.0833 87.375 13.25C88.4583 13.375 89.3958 13.625 90.1875 14C91.0208 14.375 91.7083 14.9167 92.25 15.625C92.7917 16.2917 93.2292 17.1667 93.5625 18.25L111.5 76C112.458 73.4167 113.458 70.625 114.5 67.625C115.542 64.625 116.562 61.5417 117.562 58.375C118.562 55.2083 119.521 52 120.438 48.75C121.354 45.5 122.146 42.3125 122.812 39.1875C123.521 36.0625 124.062 33.0833 124.438 30.25C124.854 27.375 125.062 24.75 125.062 22.375C125.062 19.625 124.875 17.3333 124.5 15.5C124.125 13.6667 123.688 12.1458 123.188 10.9375C122.729 9.6875 122.312 8.66667 121.938 7.875C121.562 7.08333 121.375 6.35417 121.375 5.6875C121.375 4.8125 121.604 4.08333 122.062 3.5C122.521 2.875 123.104 2.35417 123.812 1.9375C124.521 1.52083 125.292 1.22917 126.125 1.0625C126.958 0.854167 127.75 0.75 128.5 0.75C130.167 0.75 131.583 1 132.75 1.5C133.917 2 134.729 2.85417 135.188 4.0625C135.396 4.6875 135.562 5.35417 135.688 6.0625C135.812 6.72917 135.896 7.39583 135.938 8.0625C136.021 8.6875 136.062 9.29167 136.062 9.875C136.062 10.4167 136.062 10.8542 136.062 11.1875C136.062 12.9375 135.771 15.3333 135.188 18.375C134.646 21.4167 133.875 24.8542 132.875 28.6875C131.917 32.4792 130.812 36.5625 129.562 40.9375C128.312 45.3125 127 49.7292 125.625 54.1875C124.292 58.6042 122.938 62.9375 121.562 67.1875C120.188 71.4375 118.875 75.375 117.625 79C116.417 82.5833 115.333 85.75 114.375 88.5C113.458 91.2083 112.75 93.2292 112.25 94.5625C111.917 95.5625 111.458 96.3542 110.875 96.9375C110.333 97.5208 109.688 97.9583 108.938 98.25C108.229 98.5833 107.438 98.7917 106.562 98.875C105.729 98.9583 104.854 99 103.938 99C102.271 99 100.896 98.8333 99.8125 98.5C98.7708 98.1667 97.9375 97.75 97.3125 97.25C96.6875 96.75 96.2292 96.2083 95.9375 95.625C95.6458 95.0417 95.4167 94.5208 95.25 94.0625L82.8125 53.1875C81.4375 57.7292 80.0417 62.2083 78.625 66.625C77.2083 71 75.8542 75.0417 74.5625 78.75C73.3125 82.4583 72.1875 85.7083 71.1875 88.5C70.1875 91.25 69.4167 93.2708 68.875 94.5625C68.4583 95.5625 67.9375 96.3542 67.3125 96.9375C66.7292 97.5208 66.0625 97.9583 65.3125 98.25C64.6042 98.5833 63.8333 98.7917 63 98.875C62.1667 98.9583 61.3125 99 60.4375 99C58.7708 99 57.3958 98.8333 56.3125 98.5C55.2708 98.1667 54.4375 97.75 53.8125 97.25C53.1875 96.75 52.7083 96.2083 52.375 95.625C52.0833 95.0417 51.8542 94.5208 51.6875 94.0625L29.4375 19.6875C29.0208 18.2708 28.5625 17.0833 28.0625 16.125C27.6042 15.125 27.0208 14.3125 26.3125 13.6875C25.6458 13.0625 24.8125 12.6042 23.8125 12.3125C22.8542 12.0208 21.6667 11.875 20.25 11.875C19.0833 11.875 17.7292 12.1667 16.1875 12.75C14.6458 13.2917 13.1667 14.125 11.75 15.25C10.375 16.3333 9.20833 17.7083 8.25 19.375C7.29167 21 6.8125 22.8958 6.8125 25.0625C6.8125 26.3958 6.97917 27.4583 7.3125 28.25C7.6875 29.0417 8.10417 29.6458 8.5625 30.0625C9.02083 30.4375 9.47917 30.6875 9.9375 30.8125C10.4375 30.8958 10.7917 30.9375 11 30.9375C12.0417 30.9375 12.8958 30.7708 13.5625 30.4375C14.2292 30.0625 14.8333 29.6875 15.375 29.3125C15.9167 28.8958 16.4167 28.5208 16.875 28.1875C17.375 27.8125 17.9375 27.625 18.5625 27.625C19.0625 27.625 19.5833 27.75 20.125 28C20.7083 28.2083 21.2292 28.5625 21.6875 29.0625C22.1875 29.5625 22.6042 30.2292 22.9375 31.0625C23.2708 31.8542 23.4375 32.8333 23.4375 34C23.4375 35.6667 23.1042 37.1042 22.4375 38.3125C21.8125 39.5208 20.9792 40.5417 19.9375 41.375C18.9375 42.1667 17.7708 42.7708 16.4375 43.1875C15.1458 43.5625 13.8542 43.75 12.5625 43.75C10.5625 43.75 8.77083 43.3958 7.1875 42.6875C5.64583 41.9792 4.33333 41.0208 3.25 39.8125C2.20833 38.6042 1.39583 37.2083 0.8125 35.625C0.270833 34 0 32.2708 0 30.4375C0 26.1042 0.833333 22.3333 2.5 19.125C4.16667 15.875 6.375 13.1667 9.125 11C11.875 8.83333 15 7.22917 18.5 6.1875C22 5.10417 25.6042 4.5625 29.3125 4.5625C33.4792 4.5625 36.8958 5.20833 39.5625 6.5C42.2292 7.75 44.375 9.375 46 11.375C47.6667 13.375 48.9792 15.625 49.9375 18.125C50.8958 20.5833 51.75 23.0208 52.5 25.4375L68.125 76.125ZM187.125 89.8125C187.125 93.0208 186.271 95.3542 184.562 96.8125C182.896 98.2708 180.333 99 176.875 99C173.375 99 170.792 98.2708 169.125 96.8125C167.458 95.3542 166.625 93.0208 166.625 89.8125V14.5625C166.625 13.6458 166.521 12.9167 166.312 12.375C166.104 11.8333 165.812 11.4167 165.438 11.125C165.062 10.7917 164.604 10.5833 164.062 10.5C163.562 10.375 163 10.3125 162.375 10.3125C161.458 10.3125 160.312 10.4583 158.938 10.75C157.604 11.0417 156.188 11.4792 154.688 12.0625C153.188 12.6458 151.667 13.375 150.125 14.25C148.625 15.0833 147.271 16.0417 146.062 17.125C144.896 18.2083 143.938 19.4167 143.188 20.75C142.438 22.0833 142.062 23.5208 142.062 25.0625C142.062 26.3958 142.229 27.4583 142.562 28.25C142.938 29.0417 143.354 29.6458 143.812 30.0625C144.271 30.4375 144.729 30.6875 145.188 30.8125C145.688 30.8958 146.042 30.9375 146.25 30.9375C147.292 30.9375 148.146 30.7708 148.812 30.4375C149.479 30.0625 150.083 29.6875 150.625 29.3125C151.167 28.8958 151.667 28.5208 152.125 28.1875C152.625 27.8125 153.188 27.625 153.812 27.625C154.312 27.625 154.833 27.75 155.375 28C155.958 28.2083 156.479 28.5625 156.938 29.0625C157.438 29.5625 157.854 30.2292 158.188 31.0625C158.521 31.8542 158.688 32.8333 158.688 34C158.688 35.6667 158.354 37.1042 157.688 38.3125C157.062 39.5208 156.229 40.5417 155.188 41.375C154.188 42.1667 153.021 42.7708 151.688 43.1875C150.396 43.5625 149.104 43.75 147.812 43.75C145.812 43.75 144 43.4167 142.375 42.75C140.792 42.0417 139.438 41.0833 138.312 39.875C137.188 38.6667 136.333 37.25 135.75 35.625C135.167 34 134.875 32.2708 134.875 30.4375C134.875 27.5625 135.396 24.9375 136.438 22.5625C137.479 20.1458 138.896 17.9792 140.688 16.0625C142.521 14.1458 144.646 12.4792 147.062 11.0625C149.521 9.60417 152.167 8.39583 155 7.4375C157.833 6.47917 160.792 5.77083 163.875 5.3125C166.958 4.8125 170.042 4.5625 173.125 4.5625C176.542 4.5625 179.188 4.89583 181.062 5.5625C182.979 6.1875 184.375 6.95833 185.25 7.875C186.167 8.79167 186.708 9.75 186.875 10.75C187.042 11.75 187.125 12.5833 187.125 13.25V89.8125ZM238.125 93.625C240.375 93.625 242.708 93.4583 245.125 93.125C247.542 92.75 249.75 92.125 251.75 91.25C253.75 90.375 255.396 89.2292 256.688 87.8125C258.021 86.3542 258.688 84.5417 258.688 82.375C258.688 81.0833 258.438 80.125 257.938 79.5C257.479 78.875 256.958 78.4375 256.375 78.1875C255.708 77.8958 254.958 77.7917 254.125 77.875C253.5 77.875 252.938 77.9583 252.438 78.125C251.938 78.25 251.458 78.4167 251 78.625C250.583 78.7917 250.167 78.9583 249.75 79.125C249.375 79.25 248.979 79.3125 248.562 79.3125C248.104 79.3125 247.646 79.2083 247.188 79C246.729 78.7917 246.292 78.4792 245.875 78.0625C245.458 77.6458 245.125 77.125 244.875 76.5C244.625 75.8333 244.5 75.0625 244.5 74.1875C244.5 72.5208 244.812 71.1042 245.438 69.9375C246.062 68.7708 246.854 67.8125 247.812 67.0625C248.771 66.3125 249.833 65.7708 251 65.4375C252.167 65.0625 253.292 64.875 254.375 64.875C256.5 64.875 258.354 65.2292 259.938 65.9375C261.562 66.6458 262.917 67.5833 264 68.75C265.083 69.9167 265.896 71.2708 266.438 72.8125C266.979 74.3125 267.25 75.875 267.25 77.5C267.25 81.625 266.375 85.0625 264.625 87.8125C262.875 90.5208 260.375 92.6875 257.125 94.3125C253.917 95.9375 250.021 97.0833 245.438 97.75C240.854 98.4167 235.729 98.75 230.062 98.75C223.312 98.75 217.833 98.5 213.625 98C209.417 97.4583 206.146 96.7708 203.812 95.9375C201.479 95.0625 199.896 94.0833 199.062 93C198.271 91.9167 197.875 90.8125 197.875 89.6875C197.875 88.7292 198.021 87.7292 198.312 86.6875C198.604 85.6458 199.062 84.4792 199.688 83.1875C200.354 81.8958 201.188 80.4167 202.188 78.75C203.188 77.0417 204.396 75.0625 205.812 72.8125L237.062 22.875C237.562 22.0417 238.083 21.2083 238.625 20.375C239.167 19.5 239.646 18.6667 240.062 17.875C240.521 17.0417 240.875 16.2708 241.125 15.5625C241.417 14.8542 241.562 14.25 241.562 13.75C241.562 12.6667 241.042 11.8542 240 11.3125C238.958 10.7292 237.729 10.3333 236.312 10.125C234.896 9.875 233.458 9.75 232 9.75C230.542 9.70833 229.375 9.6875 228.5 9.6875C226.25 9.6875 223.896 9.89583 221.438 10.3125C218.979 10.7292 216.708 11.4167 214.625 12.375C212.583 13.2917 210.875 14.5208 209.5 16.0625C208.167 17.5625 207.5 19.4375 207.5 21.6875C207.5 22.9375 207.729 23.875 208.188 24.5C208.688 25.125 209.229 25.5417 209.812 25.75C210.479 26.0417 211.25 26.1458 212.125 26.0625C212.708 26.0625 213.229 26 213.688 25.875C214.188 25.7083 214.646 25.5417 215.062 25.375C215.479 25.1667 215.875 25 216.25 24.875C216.667 24.7083 217.083 24.625 217.5 24.625C217.792 24.625 218.167 24.7292 218.625 24.9375C219.083 25.1458 219.521 25.4583 219.938 25.875C220.354 26.2917 220.708 26.8333 221 27.5C221.292 28.125 221.438 28.875 221.438 29.75C221.438 31.375 221.125 32.7708 220.5 33.9375C219.917 35.0625 219.146 36 218.188 36.75C217.271 37.4583 216.25 38 215.125 38.375C214 38.7083 212.917 38.875 211.875 38.875C209.792 38.875 207.958 38.5 206.375 37.75C204.792 37 203.458 36.0208 202.375 34.8125C201.333 33.6042 200.542 32.2708 200 30.8125C199.458 29.3542 199.188 27.8958 199.188 26.4375C199.188 23.5208 199.729 20.9583 200.812 18.75C201.896 16.5 203.354 14.5833 205.188 13C207.062 11.4167 209.208 10.1042 211.625 9.0625C214.083 7.97917 216.667 7.125 219.375 6.5C222.083 5.875 224.833 5.4375 227.625 5.1875C230.417 4.9375 233.104 4.8125 235.688 4.8125C240.646 4.8125 244.896 5.02083 248.438 5.4375C252.021 5.85417 254.958 6.4375 257.25 7.1875C259.542 7.9375 261.229 8.83333 262.312 9.875C263.396 10.9167 263.938 12.0833 263.938 13.375C263.938 14.25 263.833 15.1667 263.625 16.125C263.417 17.0833 263.042 18.1875 262.5 19.4375C262 20.6875 261.292 22.125 260.375 23.75C259.5 25.3333 258.396 27.2083 257.062 29.375L224.812 81.5C223.979 82.8333 223.25 84.1458 222.625 85.4375C222 86.6875 221.688 87.8542 221.688 88.9375C221.688 89.8542 221.979 90.625 222.562 91.25C223.188 91.8333 224.146 92.3125 225.438 92.6875C226.771 93.0208 228.479 93.2708 230.562 93.4375C232.646 93.5625 235.167 93.625 238.125 93.625ZM312.625 93.625C314.875 93.625 317.208 93.4583 319.625 93.125C322.042 92.75 324.25 92.125 326.25 91.25C328.25 90.375 329.896 89.2292 331.188 87.8125C332.521 86.3542 333.188 84.5417 333.188 82.375C333.188 81.0833 332.938 80.125 332.438 79.5C331.979 78.875 331.458 78.4375 330.875 78.1875C330.208 77.8958 329.458 77.7917 328.625 77.875C328 77.875 327.438 77.9583 326.938 78.125C326.438 78.25 325.958 78.4167 325.5 78.625C325.083 78.7917 324.667 78.9583 324.25 79.125C323.875 79.25 323.479 79.3125 323.062 79.3125C322.604 79.3125 322.146 79.2083 321.688 79C321.229 78.7917 320.792 78.4792 320.375 78.0625C319.958 77.6458 319.625 77.125 319.375 76.5C319.125 75.8333 319 75.0625 319 74.1875C319 72.5208 319.312 71.1042 319.938 69.9375C320.562 68.7708 321.354 67.8125 322.312 67.0625C323.271 66.3125 324.333 65.7708 325.5 65.4375C326.667 65.0625 327.792 64.875 328.875 64.875C331 64.875 332.854 65.2292 334.438 65.9375C336.062 66.6458 337.417 67.5833 338.5 68.75C339.583 69.9167 340.396 71.2708 340.938 72.8125C341.479 74.3125 341.75 75.875 341.75 77.5C341.75 81.625 340.875 85.0625 339.125 87.8125C337.375 90.5208 334.875 92.6875 331.625 94.3125C328.417 95.9375 324.521 97.0833 319.938 97.75C315.354 98.4167 310.229 98.75 304.562 98.75C297.812 98.75 292.333 98.5 288.125 98C283.917 97.4583 280.646 96.7708 278.312 95.9375C275.979 95.0625 274.396 94.0833 273.562 93C272.771 91.9167 272.375 90.8125 272.375 89.6875C272.375 88.7292 272.521 87.7292 272.812 86.6875C273.104 85.6458 273.562 84.4792 274.188 83.1875C274.854 81.8958 275.688 80.4167 276.688 78.75C277.688 77.0417 278.896 75.0625 280.312 72.8125L311.562 22.875C312.062 22.0417 312.583 21.2083 313.125 20.375C313.667 19.5 314.146 18.6667 314.562 17.875C315.021 17.0417 315.375 16.2708 315.625 15.5625C315.917 14.8542 316.062 14.25 316.062 13.75C316.062 12.6667 315.542 11.8542 314.5 11.3125C313.458 10.7292 312.229 10.3333 310.812 10.125C309.396 9.875 307.958 9.75 306.5 9.75C305.042 9.70833 303.875 9.6875 303 9.6875C300.75 9.6875 298.396 9.89583 295.938 10.3125C293.479 10.7292 291.208 11.4167 289.125 12.375C287.083 13.2917 285.375 14.5208 284 16.0625C282.667 17.5625 282 19.4375 282 21.6875C282 22.9375 282.229 23.875 282.688 24.5C283.188 25.125 283.729 25.5417 284.312 25.75C284.979 26.0417 285.75 26.1458 286.625 26.0625C287.208 26.0625 287.729 26 288.188 25.875C288.688 25.7083 289.146 25.5417 289.562 25.375C289.979 25.1667 290.375 25 290.75 24.875C291.167 24.7083 291.583 24.625 292 24.625C292.292 24.625 292.667 24.7292 293.125 24.9375C293.583 25.1458 294.021 25.4583 294.438 25.875C294.854 26.2917 295.208 26.8333 295.5 27.5C295.792 28.125 295.938 28.875 295.938 29.75C295.938 31.375 295.625 32.7708 295 33.9375C294.417 35.0625 293.646 36 292.688 36.75C291.771 37.4583 290.75 38 289.625 38.375C288.5 38.7083 287.417 38.875 286.375 38.875C284.292 38.875 282.458 38.5 280.875 37.75C279.292 37 277.958 36.0208 276.875 34.8125C275.833 33.6042 275.042 32.2708 274.5 30.8125C273.958 29.3542 273.688 27.8958 273.688 26.4375C273.688 23.5208 274.229 20.9583 275.312 18.75C276.396 16.5 277.854 14.5833 279.688 13C281.562 11.4167 283.708 10.1042 286.125 9.0625C288.583 7.97917 291.167 7.125 293.875 6.5C296.583 5.875 299.333 5.4375 302.125 5.1875C304.917 4.9375 307.604 4.8125 310.188 4.8125C315.146 4.8125 319.396 5.02083 322.938 5.4375C326.521 5.85417 329.458 6.4375 331.75 7.1875C334.042 7.9375 335.729 8.83333 336.812 9.875C337.896 10.9167 338.438 12.0833 338.438 13.375C338.438 14.25 338.333 15.1667 338.125 16.125C337.917 17.0833 337.542 18.1875 337 19.4375C336.5 20.6875 335.792 22.125 334.875 23.75C334 25.3333 332.896 27.2083 331.562 29.375L299.312 81.5C298.479 82.8333 297.75 84.1458 297.125 85.4375C296.5 86.6875 296.188 87.8542 296.188 88.9375C296.188 89.8542 296.479 90.625 297.062 91.25C297.688 91.8333 298.646 92.3125 299.938 92.6875C301.271 93.0208 302.979 93.2708 305.062 93.4375C307.146 93.5625 309.667 93.625 312.625 93.625Z" fill="#FF8F9C"/>
</svg>
