<?xml version="1.0" encoding="iso-8859-1"?>
<!-- Uploaded to: SVG Repo, www.svgrepo.com, Generator: SVG Repo Mixer Tools -->
<svg height="800px" width="800px" version="1.1" id="Layer_1" xmlns="http://www.w3.org/2000/svg" xmlns:xlink="http://www.w3.org/1999/xlink" 
	 viewBox="0 0 511.983 511.983" xml:space="preserve">
<polygon style="fill:#4FC2E9;" points="405.346,100.998 352.02,143.653 298.71,100.998 320.037,68.999 384.019,68.999 "/>
<path style="fill:#FFCE54;" d="M352.02,122.326c-88.333,0-159.94,71.607-159.94,159.948s71.607,159.948,159.94,159.948
	c88.341,0,159.963-71.607,159.963-159.948S440.361,122.326,352.02,122.326z M352.02,399.566
	c-64.779,0-117.293-52.514-117.293-117.293S287.241,164.98,352.02,164.98c64.795,0,117.309,52.514,117.309,117.293
	S416.815,399.566,352.02,399.566z"/>
<path style="fill:#F6BB42;" d="M255.726,215.306c13.562,19.125,21.53,42.499,21.53,67.732c0,64.779-52.521,117.293-117.3,117.293
	c-64.787,0-117.301-52.514-117.301-117.293s52.514-117.309,117.301-117.309c23.983,0,46.288,7.219,64.873,19.577
	c8.796-11.515,19.116-21.812,30.663-30.562c-26.655-19.89-59.724-31.67-95.536-31.67C71.615,123.074,0,194.697,0,283.037
	s71.615,159.948,159.956,159.948s159.956-71.605,159.956-159.946c0-36.921-12.515-70.904-33.515-97.981
	C274.397,193.167,264,203.432,255.726,215.306z"/>
</svg>